%TF.GenerationSoftware,KiCad,Pcbnew,9.0.3*%
%TF.CreationDate,2025-11-04T21:30:19+11:00*%
%TF.ProjectId,test_project,74657374-5f70-4726-9f6a-6563742e6b69,rev?*%
%TF.SameCoordinates,Original*%
%TF.FileFunction,Profile,NP*%
%FSLAX46Y46*%
G04 Gerber Fmt 4.6, Leading zero omitted, Abs format (unit mm)*
G04 Created by KiCad (PCBNEW 9.0.3) date 2025-11-04 21:30:19*
%MOMM*%
%LPD*%
G01*
G04 APERTURE LIST*
%TA.AperFunction,Profile*%
%ADD10C,0.050000*%
%TD*%
G04 APERTURE END LIST*
D10*
X117500000Y-139500000D02*
G75*
G02*
X115500000Y-137500000I0J2000000D01*
G01*
X177000000Y-145600000D02*
G75*
G02*
X175100000Y-143700000I0J1900000D01*
G01*
X175100000Y-119300000D02*
X175100000Y-143700000D01*
X149700000Y-64000000D02*
X150300000Y-64000000D01*
X149200000Y-142900000D02*
G75*
G02*
X148700000Y-143400000I-500000J0D01*
G01*
X182500000Y-126000000D02*
X182500000Y-136500000D01*
X154700000Y-139500000D02*
X171500000Y-139500000D01*
X153700000Y-140500000D02*
G75*
G02*
X154700000Y-139500000I1000000J0D01*
G01*
X177000000Y-145600000D02*
X192300000Y-145600000D01*
X185850000Y-141250000D02*
X185850000Y-136500000D01*
X185850000Y-67500000D02*
X185850000Y-62750000D01*
X173500000Y-76700000D02*
X173500000Y-63000000D01*
X171500000Y-61000000D02*
X151800000Y-61000000D01*
X150300000Y-142400000D02*
G75*
G02*
X150800000Y-142900000I0J-500000D01*
G01*
X115500000Y-63000000D02*
G75*
G02*
X117500000Y-61000000I2000000J0D01*
G01*
X150800000Y-63500000D02*
G75*
G02*
X150300000Y-64000000I-500000J0D01*
G01*
X153700000Y-142700000D02*
G75*
G02*
X153423607Y-143147214I-500000J0D01*
G01*
X184150000Y-136500000D02*
X184150000Y-141250000D01*
X173500000Y-137500000D02*
G75*
G02*
X171500000Y-139500000I-2000000J0D01*
G01*
X187500000Y-78000000D02*
X187500000Y-67500000D01*
X177100000Y-57700000D02*
X192100000Y-57700000D01*
X182500000Y-67500000D02*
X182500000Y-78000000D01*
X194300000Y-143600000D02*
G75*
G02*
X192300000Y-145600000I-2000000J0D01*
G01*
X185850000Y-136500000D02*
X187500000Y-136500000D01*
X146300000Y-142700000D02*
X146300000Y-140500000D01*
X115500000Y-63000000D02*
X115500000Y-137500000D01*
X145300000Y-139500000D02*
X117500000Y-139500000D01*
X150800000Y-63500000D02*
X150800000Y-62000000D01*
X151300000Y-143400000D02*
X151900000Y-143400000D01*
X175100000Y-113300000D02*
X175100000Y-82700000D01*
X187500000Y-67500000D02*
X185850000Y-67500000D01*
X146576393Y-143147214D02*
G75*
G02*
X146300000Y-142700000I223607J447214D01*
G01*
X145300000Y-139500000D02*
G75*
G02*
X146300000Y-140500000I0J-1000000D01*
G01*
X149200000Y-142900000D02*
G75*
G02*
X149700000Y-142400000I500000J0D01*
G01*
X184150000Y-67500000D02*
X182500000Y-67500000D01*
X149700000Y-64000000D02*
G75*
G02*
X149200000Y-63500000I0J500000D01*
G01*
X153700000Y-142700000D02*
X153700000Y-140500000D01*
X175100000Y-59700000D02*
G75*
G02*
X177100000Y-57700000I2000000J0D01*
G01*
X179500000Y-126000000D02*
X182500000Y-126000000D01*
X171500000Y-61000000D02*
G75*
G02*
X173500000Y-63000000I0J-2000000D01*
G01*
X148200000Y-61000000D02*
G75*
G02*
X149200000Y-62000000I0J-1000000D01*
G01*
X184150000Y-141250000D02*
X185850000Y-141250000D01*
X175100000Y-76700000D02*
X175100000Y-59700000D01*
X149200000Y-63500000D02*
X149200000Y-62000000D01*
X192100000Y-57700000D02*
G75*
G02*
X194100000Y-59700000I0J-2000000D01*
G01*
X179500000Y-78000000D02*
X179500000Y-126000000D01*
X149700000Y-142400000D02*
X150300000Y-142400000D01*
X173500000Y-119300000D02*
X173500000Y-137500000D01*
X151900000Y-143400000D02*
X153423605Y-143147214D01*
X187500000Y-126000000D02*
X190500000Y-126000000D01*
X148100000Y-143400000D02*
X146576395Y-143147214D01*
X173500000Y-82700000D02*
X173500000Y-113300000D01*
X190500000Y-78000000D02*
X187500000Y-78000000D01*
X182500000Y-136500000D02*
X184150000Y-136500000D01*
X150800000Y-62000000D02*
G75*
G02*
X151800000Y-61000000I1000000J0D01*
G01*
X151300000Y-143400000D02*
G75*
G02*
X150800000Y-142900000I0J500000D01*
G01*
X194100000Y-59700000D02*
X194300000Y-143600000D01*
X185850000Y-62750000D02*
X184150000Y-62750000D01*
X187500000Y-136500000D02*
X187500000Y-126000000D01*
X184150000Y-62750000D02*
X184150000Y-67500000D01*
X182500000Y-78000000D02*
X179500000Y-78000000D01*
X117500000Y-61000000D02*
X148200000Y-61000000D01*
X148700000Y-143400000D02*
X148100000Y-143400000D01*
X190500000Y-126000000D02*
X190500000Y-78000000D01*
%TO.C,J1*%
X144500000Y-79500000D02*
X144500000Y-124500000D01*
X146000000Y-78000000D02*
X154000000Y-78000000D01*
X146000000Y-126000000D02*
X154000000Y-126000000D01*
X155500000Y-79500000D02*
X155500000Y-124500000D01*
X144500000Y-79500000D02*
G75*
G02*
X146000000Y-78000000I1500001J-1D01*
G01*
X146000000Y-126000000D02*
G75*
G02*
X144500000Y-124500000I1J1500001D01*
G01*
X154000000Y-78000000D02*
G75*
G02*
X155500000Y-79500000I0J-1500000D01*
G01*
X155500000Y-124500000D02*
G75*
G02*
X154000000Y-126000000I-1500000J0D01*
G01*
%TO.C,M2*%
X173500000Y-76700000D02*
X173500000Y-77700000D01*
X173500000Y-82700000D02*
X173500000Y-81700000D01*
X175100000Y-76700000D02*
X175100000Y-77700000D01*
X175100000Y-82700000D02*
X175100000Y-81700000D01*
X173500000Y-81700000D02*
G75*
G02*
X175100000Y-81700000I800000J0D01*
G01*
X175100000Y-77700000D02*
G75*
G02*
X173500000Y-77700000I-800000J0D01*
G01*
%TO.C,M1*%
X173500000Y-113300000D02*
X173500000Y-114300000D01*
X173500000Y-119300000D02*
X173500000Y-118300000D01*
X175100000Y-113300000D02*
X175100000Y-114300000D01*
X175100000Y-119300000D02*
X175100000Y-118300000D01*
X173500000Y-118300000D02*
G75*
G02*
X175100000Y-118300000I800000J0D01*
G01*
X175100000Y-114300000D02*
G75*
G02*
X173500000Y-114300000I-800000J0D01*
G01*
%TD*%
M02*
