M48
; DRILL file {KiCad 9.0.3} date 2025-11-04T21:30:24+1100
; FORMAT={-:-/ absolute / metric / decimal}
; #@! TF.CreationDate,2025-11-04T21:30:24+11:00
; #@! TF.GenerationSoftware,Kicad,Pcbnew,9.0.3
; #@! TF.FileFunction,Plated,1,2,PTH
FMAT,2
METRIC
; #@! TA.AperFunction,Plated,PTH,ViaDrill
T1C0.300
; #@! TA.AperFunction,Plated,PTH,ComponentDrill
T2C0.700
%
G90
G05
T1
X120.0Y-89.5
X120.0Y-97.6
X120.0Y-105.0
X120.0Y-112.9
X120.0Y-120.8
X120.0Y-123.7
X124.0Y-100.7
X124.0Y-108.7
X124.0Y-116.5
X124.1Y-93.3
X125.0Y-86.3
X125.2Y-101.4
X125.2Y-103.1
X125.5Y-129.3
X126.5Y-78.6
X126.9Y-103.1
X127.0Y-101.4
X128.9Y-102.2
X129.1Y-101.2
X129.8Y-102.2
X130.0Y-112.2
X131.8Y-80.4
X132.4Y-132.6
X133.5Y-77.8
X133.5Y-82.5
X133.6Y-80.7
X133.8Y-84.6
X134.4Y-100.0
X135.8Y-75.9
X136.0Y-80.6
X136.0Y-82.5
X136.0Y-84.6
X136.6Y-94.7
X137.5Y-76.0
X138.9Y-92.1
X139.0Y-75.1
X139.4Y-120.5
X140.2Y-80.5
X140.4Y-85.9
X140.5Y-76.4
X141.7Y-98.5
X142.4Y-80.7
X142.4Y-81.3
X142.7Y-85.9
X142.9Y-83.4
X145.0Y-130.4
X148.9Y-140.3
X151.8Y-140.6
X155.7Y-130.5
X163.3Y-104.2
X163.4Y-88.9
X163.4Y-96.5
X163.4Y-111.9
X163.4Y-119.8
X167.7Y-83.5
X167.7Y-92.4
X167.7Y-100.2
X167.7Y-107.7
X167.7Y-115.5
X168.2Y-133.5
X178.9Y-140.5
X179.0Y-62.3
X190.5Y-63.0
X190.6Y-141.3
T2
X130.5Y-67.0
X132.4Y-67.0
M30
