%TF.GenerationSoftware,KiCad,Pcbnew,9.0.3*%
%TF.CreationDate,2025-11-04T21:30:19+11:00*%
%TF.ProjectId,test_project,74657374-5f70-4726-9f6a-6563742e6b69,rev?*%
%TF.SameCoordinates,Original*%
%TF.FileFunction,Copper,L2,Bot*%
%TF.FilePolarity,Positive*%
%FSLAX46Y46*%
G04 Gerber Fmt 4.6, Leading zero omitted, Abs format (unit mm)*
G04 Created by KiCad (PCBNEW 9.0.3) date 2025-11-04 21:30:19*
%MOMM*%
%LPD*%
G01*
G04 APERTURE LIST*
%TA.AperFunction,ComponentPad*%
%ADD10C,1.400000*%
%TD*%
%TA.AperFunction,ViaPad*%
%ADD11C,0.600000*%
%TD*%
%TA.AperFunction,Conductor*%
%ADD12C,2.000000*%
%TD*%
%TA.AperFunction,Conductor*%
%ADD13C,0.350000*%
%TD*%
%TA.AperFunction,Conductor*%
%ADD14C,0.500000*%
%TD*%
G04 APERTURE END LIST*
D10*
%TO.P,U2,1,A*%
%TO.N,Net-(SW1-B)*%
X130500000Y-67000000D03*
%TO.P,U2,2,B*%
%TO.N,Net-(J1-Pin_1)*%
X132400000Y-67000000D03*
%TD*%
D11*
%TO.N,GND*%
X135800000Y-75900000D03*
X140500000Y-76400000D03*
X139000000Y-75100000D03*
X137500000Y-76000000D03*
X163400000Y-119800000D03*
X163400000Y-111900000D03*
X163300000Y-104200000D03*
X163400000Y-96500000D03*
X163400000Y-88900000D03*
X125000000Y-86300000D03*
X124100000Y-93300000D03*
X124000000Y-100700000D03*
X124000000Y-108700000D03*
X124000000Y-116500000D03*
X151800000Y-140600000D03*
X148900000Y-140300000D03*
X132400000Y-132600000D03*
X125500000Y-129300000D03*
X139400000Y-120500000D03*
X130000000Y-112200000D03*
X141700000Y-98500000D03*
X136600000Y-94700000D03*
X138900000Y-92100000D03*
X140200000Y-80500000D03*
X142900000Y-83400000D03*
X142700000Y-85900000D03*
X140400000Y-85900000D03*
X136000000Y-84600000D03*
X133800000Y-84600000D03*
X131800000Y-80400000D03*
X133500000Y-77800000D03*
X133600000Y-80700000D03*
X136000000Y-80600000D03*
X136000000Y-82500000D03*
X133500000Y-82500000D03*
X145000000Y-130400000D03*
X155700000Y-130500000D03*
X168200000Y-133500000D03*
X190600000Y-141300000D03*
X178900000Y-140500000D03*
X190500000Y-63000000D03*
X179000000Y-62300000D03*
X134400000Y-100000000D03*
X129100000Y-101200000D03*
X126900000Y-103100000D03*
X125200000Y-103100000D03*
X125200000Y-101400000D03*
X127000000Y-101400000D03*
%TO.N,+5V*%
X126500000Y-78600000D03*
X128900000Y-102200000D03*
X129800000Y-102200000D03*
X120000000Y-123700000D03*
X167700000Y-100200000D03*
X120000000Y-112900000D03*
X167700000Y-83500000D03*
X120000000Y-97600000D03*
X167700000Y-115500000D03*
X120000000Y-120800000D03*
X142400000Y-81300000D03*
X142400000Y-80700000D03*
X120000000Y-105000000D03*
X120000000Y-89500000D03*
X167700000Y-107700000D03*
X167700000Y-92400000D03*
%TD*%
D12*
%TO.N,+5V*%
X132000000Y-73100000D02*
X126500000Y-78600000D01*
X139900000Y-73100000D02*
X132000000Y-73100000D01*
X142400000Y-75600000D02*
X139900000Y-73100000D01*
X126500000Y-78600000D02*
X120000000Y-85100000D01*
D13*
X129800000Y-102200000D02*
X120000000Y-102200000D01*
D12*
X120000000Y-102200000D02*
X120000000Y-105000000D01*
X156700000Y-73100000D02*
X167100000Y-83500000D01*
X144900000Y-73100000D02*
X156700000Y-73100000D01*
X167100000Y-83500000D02*
X167700000Y-83500000D01*
X142400000Y-75600000D02*
X144900000Y-73100000D01*
X167700000Y-123700000D02*
X167700000Y-115500000D01*
X167700000Y-107700000D02*
X167700000Y-100200000D01*
D14*
X167800000Y-83400000D02*
X167700000Y-83500000D01*
D12*
X167700000Y-92400000D02*
X167700000Y-83500000D01*
D14*
X167700000Y-83500000D02*
X167700000Y-85800000D01*
D12*
X167700000Y-115500000D02*
X167700000Y-107700000D01*
X167700000Y-100200000D02*
X167700000Y-92400000D01*
X142400000Y-81300000D02*
X142400000Y-75600000D01*
X120000000Y-85100000D02*
X120000000Y-89500000D01*
X120000000Y-105000000D02*
X120000000Y-112900000D01*
X120000000Y-97600000D02*
X120000000Y-102200000D01*
X120000000Y-89500000D02*
X120000000Y-97600000D01*
X120000000Y-119600000D02*
X120000000Y-120800000D01*
X120000000Y-112900000D02*
X120000000Y-119600000D01*
X120000000Y-120800000D02*
X120000000Y-124100000D01*
%TD*%
%TA.AperFunction,Conductor*%
%TO.N,GND*%
G36*
X148206922Y-61501280D02*
G01*
X148297266Y-61511459D01*
X148324331Y-61517636D01*
X148403540Y-61545352D01*
X148428553Y-61557398D01*
X148499606Y-61602043D01*
X148521313Y-61619355D01*
X148580644Y-61678686D01*
X148597957Y-61700395D01*
X148642600Y-61771444D01*
X148654648Y-61796462D01*
X148682362Y-61875666D01*
X148688540Y-61902735D01*
X148698720Y-61993076D01*
X148699500Y-62006961D01*
X148699500Y-63587534D01*
X148729898Y-63759937D01*
X148789775Y-63924446D01*
X148877309Y-64076057D01*
X148989836Y-64210163D01*
X149123942Y-64322690D01*
X149123943Y-64322691D01*
X149123945Y-64322692D01*
X149275555Y-64410225D01*
X149440062Y-64470101D01*
X149612468Y-64500500D01*
X149612472Y-64500500D01*
X150387528Y-64500500D01*
X150387532Y-64500500D01*
X150559938Y-64470101D01*
X150724445Y-64410225D01*
X150876055Y-64322692D01*
X151010163Y-64210163D01*
X151122692Y-64076055D01*
X151210225Y-63924445D01*
X151270101Y-63759938D01*
X151300500Y-63587532D01*
X151300500Y-63500000D01*
X151300500Y-63434108D01*
X151300500Y-62006961D01*
X151301280Y-61993077D01*
X151303668Y-61971887D01*
X151311460Y-61902729D01*
X151317635Y-61875670D01*
X151345353Y-61796456D01*
X151357396Y-61771450D01*
X151402046Y-61700389D01*
X151419351Y-61678690D01*
X151478690Y-61619351D01*
X151500389Y-61602046D01*
X151571450Y-61557396D01*
X151596456Y-61545353D01*
X151675670Y-61517635D01*
X151702733Y-61511459D01*
X151765419Y-61504396D01*
X151793079Y-61501280D01*
X151806962Y-61500500D01*
X151865892Y-61500500D01*
X171434108Y-61500500D01*
X171495572Y-61500500D01*
X171504418Y-61500816D01*
X171704561Y-61515130D01*
X171722063Y-61517647D01*
X171913797Y-61559355D01*
X171930755Y-61564334D01*
X172078270Y-61619355D01*
X172114609Y-61632909D01*
X172130701Y-61640259D01*
X172302904Y-61734288D01*
X172317784Y-61743849D01*
X172474867Y-61861441D01*
X172488237Y-61873027D01*
X172626972Y-62011762D01*
X172638558Y-62025132D01*
X172756146Y-62182210D01*
X172765711Y-62197095D01*
X172859740Y-62369298D01*
X172867090Y-62385390D01*
X172935662Y-62569236D01*
X172940646Y-62586212D01*
X172982351Y-62777931D01*
X172984869Y-62795442D01*
X172999184Y-62995580D01*
X172999500Y-63004427D01*
X172999500Y-77807761D01*
X173034974Y-78020350D01*
X173054816Y-78078148D01*
X173060476Y-78134584D01*
X173059500Y-78142003D01*
X173059500Y-78142007D01*
X173059500Y-78257993D01*
X173072715Y-78307314D01*
X173089520Y-78370029D01*
X173089520Y-78370030D01*
X173128763Y-78438000D01*
X173145236Y-78505900D01*
X173128763Y-78562000D01*
X173089520Y-78629969D01*
X173089520Y-78629970D01*
X173059500Y-78742007D01*
X173059500Y-78857992D01*
X173089520Y-78970029D01*
X173089520Y-78970030D01*
X173128763Y-79038000D01*
X173145236Y-79105900D01*
X173128763Y-79162000D01*
X173089520Y-79229969D01*
X173089520Y-79229970D01*
X173059500Y-79342007D01*
X173059500Y-79457992D01*
X173089520Y-79570029D01*
X173089520Y-79570030D01*
X173128763Y-79638000D01*
X173145236Y-79705900D01*
X173128763Y-79762000D01*
X173089520Y-79829969D01*
X173089520Y-79829970D01*
X173059500Y-79942007D01*
X173059500Y-80057992D01*
X173089520Y-80170029D01*
X173089520Y-80170030D01*
X173128763Y-80238000D01*
X173145236Y-80305900D01*
X173128763Y-80362000D01*
X173089520Y-80429969D01*
X173089520Y-80429970D01*
X173059500Y-80542007D01*
X173059500Y-80657992D01*
X173089520Y-80770029D01*
X173089520Y-80770030D01*
X173128763Y-80838000D01*
X173145236Y-80905900D01*
X173128763Y-80962000D01*
X173089520Y-81029969D01*
X173089520Y-81029970D01*
X173059500Y-81142007D01*
X173059500Y-81257994D01*
X173060475Y-81265400D01*
X173054818Y-81321847D01*
X173034973Y-81379652D01*
X172999500Y-81592238D01*
X172999500Y-114407761D01*
X173034974Y-114620350D01*
X173054816Y-114678148D01*
X173060476Y-114734584D01*
X173059500Y-114742003D01*
X173059500Y-114857992D01*
X173089520Y-114970029D01*
X173089520Y-114970030D01*
X173128763Y-115038000D01*
X173145236Y-115105900D01*
X173128763Y-115162000D01*
X173089520Y-115229969D01*
X173089520Y-115229970D01*
X173059500Y-115342007D01*
X173059500Y-115457992D01*
X173089520Y-115570029D01*
X173089520Y-115570030D01*
X173128763Y-115638000D01*
X173145236Y-115705900D01*
X173128763Y-115762000D01*
X173089520Y-115829969D01*
X173089520Y-115829970D01*
X173059500Y-115942007D01*
X173059500Y-116057992D01*
X173089520Y-116170029D01*
X173089520Y-116170030D01*
X173128763Y-116238000D01*
X173145236Y-116305900D01*
X173128763Y-116362000D01*
X173089520Y-116429969D01*
X173089520Y-116429970D01*
X173059500Y-116542007D01*
X173059500Y-116657992D01*
X173089520Y-116770029D01*
X173089520Y-116770030D01*
X173128763Y-116838000D01*
X173145236Y-116905900D01*
X173128763Y-116962000D01*
X173089520Y-117029969D01*
X173089520Y-117029970D01*
X173059500Y-117142007D01*
X173059500Y-117257992D01*
X173089520Y-117370029D01*
X173089520Y-117370030D01*
X173128763Y-117438000D01*
X173145236Y-117505900D01*
X173128763Y-117562000D01*
X173089520Y-117629969D01*
X173089520Y-117629970D01*
X173059500Y-117742007D01*
X173059500Y-117857994D01*
X173060475Y-117865400D01*
X173054818Y-117921847D01*
X173034973Y-117979652D01*
X172999500Y-118192238D01*
X172999500Y-137495572D01*
X172999184Y-137504418D01*
X172999184Y-137504419D01*
X172984869Y-137704557D01*
X172982351Y-137722068D01*
X172940646Y-137913787D01*
X172935662Y-137930763D01*
X172867090Y-138114609D01*
X172859740Y-138130701D01*
X172765711Y-138302904D01*
X172756146Y-138317789D01*
X172638558Y-138474867D01*
X172626972Y-138488237D01*
X172488237Y-138626972D01*
X172474867Y-138638558D01*
X172317789Y-138756146D01*
X172302904Y-138765711D01*
X172130701Y-138859740D01*
X172114609Y-138867090D01*
X171930763Y-138935662D01*
X171913787Y-138940646D01*
X171722068Y-138982351D01*
X171704557Y-138984869D01*
X171523779Y-138997799D01*
X171504417Y-138999184D01*
X171495572Y-138999500D01*
X154592682Y-138999500D01*
X154380235Y-139030044D01*
X154380225Y-139030047D01*
X154174284Y-139090517D01*
X153979061Y-139179672D01*
X153979048Y-139179679D01*
X153798485Y-139295720D01*
X153636275Y-139436275D01*
X153495720Y-139598485D01*
X153379679Y-139779048D01*
X153379672Y-139779061D01*
X153290517Y-139974284D01*
X153230047Y-140180225D01*
X153230044Y-140180235D01*
X153199500Y-140392682D01*
X153199500Y-142571931D01*
X153179815Y-142638970D01*
X153127011Y-142684725D01*
X153095796Y-142694259D01*
X151977411Y-142879815D01*
X151882724Y-142895525D01*
X151868843Y-142897828D01*
X151848547Y-142899500D01*
X151419894Y-142899500D01*
X151352855Y-142879815D01*
X151307100Y-142827011D01*
X151297778Y-142797031D01*
X151292311Y-142766025D01*
X151270101Y-142640062D01*
X151210225Y-142475555D01*
X151122692Y-142323945D01*
X151122691Y-142323943D01*
X151122690Y-142323942D01*
X151010163Y-142189836D01*
X150876057Y-142077309D01*
X150724446Y-141989775D01*
X150559937Y-141929898D01*
X150387534Y-141899500D01*
X150387532Y-141899500D01*
X150365892Y-141899500D01*
X149765892Y-141899500D01*
X149700000Y-141899500D01*
X149612468Y-141899500D01*
X149612465Y-141899500D01*
X149440062Y-141929898D01*
X149275553Y-141989775D01*
X149123942Y-142077309D01*
X148989836Y-142189836D01*
X148877309Y-142323942D01*
X148789775Y-142475553D01*
X148729898Y-142640063D01*
X148702222Y-142797031D01*
X148671196Y-142859635D01*
X148611249Y-142895525D01*
X148580106Y-142899500D01*
X148151453Y-142899500D01*
X148131157Y-142897828D01*
X148117276Y-142895525D01*
X148022589Y-142879815D01*
X146904204Y-142694259D01*
X146841291Y-142663867D01*
X146804796Y-142604286D01*
X146800500Y-142571931D01*
X146800500Y-140392683D01*
X146800500Y-140392682D01*
X146769954Y-140180231D01*
X146709484Y-139974290D01*
X146709483Y-139974288D01*
X146709482Y-139974284D01*
X146620327Y-139779061D01*
X146620320Y-139779048D01*
X146587211Y-139727531D01*
X146504281Y-139598487D01*
X146394636Y-139471950D01*
X146363724Y-139436275D01*
X146201514Y-139295720D01*
X146201513Y-139295719D01*
X146136991Y-139254253D01*
X146020951Y-139179679D01*
X146020938Y-139179672D01*
X145825715Y-139090517D01*
X145619774Y-139030047D01*
X145619764Y-139030044D01*
X145428754Y-139002582D01*
X145407318Y-138999500D01*
X145407317Y-138999500D01*
X117504428Y-138999500D01*
X117495582Y-138999184D01*
X117473622Y-138997613D01*
X117295442Y-138984869D01*
X117277931Y-138982351D01*
X117086212Y-138940646D01*
X117069236Y-138935662D01*
X116885390Y-138867090D01*
X116869298Y-138859740D01*
X116697095Y-138765711D01*
X116682210Y-138756146D01*
X116525132Y-138638558D01*
X116511762Y-138626972D01*
X116373027Y-138488237D01*
X116361441Y-138474867D01*
X116243849Y-138317784D01*
X116234288Y-138302904D01*
X116140259Y-138130701D01*
X116132909Y-138114609D01*
X116072091Y-137951551D01*
X116064334Y-137930755D01*
X116059355Y-137913797D01*
X116017647Y-137722063D01*
X116015130Y-137704556D01*
X116000816Y-137504418D01*
X116000500Y-137495572D01*
X116000500Y-85005513D01*
X118799500Y-85005513D01*
X118799500Y-124194486D01*
X118829059Y-124381118D01*
X118887454Y-124560836D01*
X118944891Y-124673561D01*
X118973240Y-124729199D01*
X119084310Y-124882073D01*
X119217927Y-125015690D01*
X119370801Y-125126760D01*
X119401626Y-125142466D01*
X119539163Y-125212545D01*
X119539165Y-125212545D01*
X119539168Y-125212547D01*
X119635497Y-125243846D01*
X119718881Y-125270940D01*
X119905514Y-125300500D01*
X119905519Y-125300500D01*
X120094486Y-125300500D01*
X120281118Y-125270940D01*
X120297365Y-125265661D01*
X120460832Y-125212547D01*
X120629199Y-125126760D01*
X120782073Y-125015690D01*
X120915690Y-124882073D01*
X121026760Y-124729199D01*
X121112547Y-124560832D01*
X121170940Y-124381118D01*
X121179163Y-124329199D01*
X121200500Y-124194486D01*
X121200500Y-102699500D01*
X121220185Y-102632461D01*
X121272989Y-102586706D01*
X121324500Y-102575500D01*
X128518013Y-102575500D01*
X128585052Y-102595185D01*
X128592266Y-102600257D01*
X128592684Y-102600498D01*
X128592686Y-102600500D01*
X128706814Y-102666392D01*
X128834108Y-102700500D01*
X128834110Y-102700500D01*
X128965890Y-102700500D01*
X128965892Y-102700500D01*
X129093186Y-102666392D01*
X129207314Y-102600500D01*
X129207315Y-102600498D01*
X129214352Y-102596436D01*
X129215131Y-102597786D01*
X129227822Y-102592880D01*
X129247052Y-102580523D01*
X129267333Y-102577606D01*
X129271671Y-102575930D01*
X129281987Y-102575500D01*
X129418013Y-102575500D01*
X129485052Y-102595185D01*
X129492266Y-102600257D01*
X129492684Y-102600498D01*
X129492686Y-102600500D01*
X129606814Y-102666392D01*
X129734108Y-102700500D01*
X129734110Y-102700500D01*
X129865890Y-102700500D01*
X129865892Y-102700500D01*
X129993186Y-102666392D01*
X130107314Y-102600500D01*
X130200500Y-102507314D01*
X130266392Y-102393186D01*
X130300500Y-102265892D01*
X130300500Y-102134108D01*
X130266392Y-102006814D01*
X130200500Y-101892686D01*
X130107314Y-101799500D01*
X130025061Y-101752011D01*
X129993187Y-101733608D01*
X129929539Y-101716554D01*
X129865892Y-101699500D01*
X129734108Y-101699500D01*
X129606812Y-101733608D01*
X129527006Y-101779684D01*
X129492686Y-101799500D01*
X129492684Y-101799501D01*
X129485648Y-101803564D01*
X129484868Y-101802213D01*
X129472177Y-101807119D01*
X129452948Y-101819477D01*
X129432666Y-101822393D01*
X129428329Y-101824070D01*
X129418013Y-101824500D01*
X129281987Y-101824500D01*
X129214948Y-101804815D01*
X129207733Y-101799742D01*
X129093187Y-101733608D01*
X129029539Y-101716554D01*
X128965892Y-101699500D01*
X128834108Y-101699500D01*
X128706812Y-101733608D01*
X128627006Y-101779684D01*
X128592686Y-101799500D01*
X128592684Y-101799501D01*
X128585648Y-101803564D01*
X128584868Y-101802213D01*
X128528329Y-101824070D01*
X128518013Y-101824500D01*
X121324500Y-101824500D01*
X121257461Y-101804815D01*
X121211706Y-101752011D01*
X121200500Y-101700500D01*
X121200500Y-85648626D01*
X121220185Y-85581587D01*
X121236819Y-85560945D01*
X124326824Y-82470940D01*
X127415690Y-79382074D01*
X127415690Y-79382073D01*
X132460944Y-74336819D01*
X132522267Y-74303334D01*
X132548625Y-74300500D01*
X139351374Y-74300500D01*
X139418413Y-74320185D01*
X139439055Y-74336819D01*
X141163181Y-76060944D01*
X141196666Y-76122267D01*
X141199500Y-76148625D01*
X141199500Y-81394486D01*
X141229059Y-81581118D01*
X141287454Y-81760836D01*
X141373240Y-81929199D01*
X141484310Y-82082073D01*
X141617927Y-82215690D01*
X141770801Y-82326760D01*
X141850347Y-82367290D01*
X141939163Y-82412545D01*
X141939165Y-82412545D01*
X141939168Y-82412547D01*
X142035497Y-82443846D01*
X142118881Y-82470940D01*
X142305514Y-82500500D01*
X142305519Y-82500500D01*
X142494486Y-82500500D01*
X142681118Y-82470940D01*
X142860832Y-82412547D01*
X143029199Y-82326760D01*
X143182073Y-82215690D01*
X143315690Y-82082073D01*
X143426760Y-81929199D01*
X143512547Y-81760832D01*
X143570940Y-81581118D01*
X143579993Y-81523958D01*
X143600500Y-81394486D01*
X143600500Y-79368872D01*
X143999500Y-79368872D01*
X143999500Y-124631127D01*
X144023386Y-124812545D01*
X144033730Y-124891116D01*
X144101079Y-125142466D01*
X144101602Y-125144418D01*
X144101605Y-125144428D01*
X144201953Y-125386690D01*
X144201958Y-125386700D01*
X144333075Y-125613803D01*
X144492718Y-125821851D01*
X144492726Y-125821860D01*
X144678140Y-126007274D01*
X144678148Y-126007281D01*
X144886196Y-126166924D01*
X145113299Y-126298041D01*
X145113309Y-126298046D01*
X145355571Y-126398394D01*
X145355581Y-126398398D01*
X145608884Y-126466270D01*
X145868880Y-126500500D01*
X145868887Y-126500500D01*
X154131113Y-126500500D01*
X154131120Y-126500500D01*
X154391116Y-126466270D01*
X154644419Y-126398398D01*
X154886697Y-126298043D01*
X155113803Y-126166924D01*
X155321851Y-126007282D01*
X155321855Y-126007277D01*
X155321860Y-126007274D01*
X155507274Y-125821860D01*
X155507277Y-125821855D01*
X155507282Y-125821851D01*
X155666924Y-125613803D01*
X155798043Y-125386697D01*
X155898398Y-125144419D01*
X155966270Y-124891116D01*
X156000500Y-124631120D01*
X156000500Y-124500000D01*
X156000500Y-124434108D01*
X156000500Y-79434108D01*
X156000500Y-79368880D01*
X155966270Y-79108884D01*
X155898398Y-78855581D01*
X155804947Y-78629970D01*
X155798046Y-78613309D01*
X155798041Y-78613299D01*
X155666924Y-78386196D01*
X155507281Y-78178148D01*
X155507274Y-78178140D01*
X155321860Y-77992726D01*
X155321851Y-77992718D01*
X155113803Y-77833075D01*
X154886700Y-77701958D01*
X154886690Y-77701953D01*
X154644428Y-77601605D01*
X154644421Y-77601603D01*
X154644419Y-77601602D01*
X154391116Y-77533730D01*
X154333339Y-77526123D01*
X154131127Y-77499500D01*
X154131120Y-77499500D01*
X154065892Y-77499500D01*
X146065892Y-77499500D01*
X146000000Y-77499500D01*
X145868880Y-77499500D01*
X145868872Y-77499500D01*
X145637772Y-77529926D01*
X145608884Y-77533730D01*
X145363426Y-77599500D01*
X145355581Y-77601602D01*
X145355571Y-77601605D01*
X145113309Y-77701953D01*
X145113299Y-77701958D01*
X144886196Y-77833075D01*
X144678148Y-77992718D01*
X144492718Y-78178148D01*
X144333075Y-78386196D01*
X144201958Y-78613299D01*
X144201953Y-78613309D01*
X144101605Y-78855571D01*
X144101602Y-78855581D01*
X144036111Y-79100000D01*
X144033730Y-79108885D01*
X143999500Y-79368872D01*
X143600500Y-79368872D01*
X143600500Y-76148625D01*
X143620185Y-76081586D01*
X143636819Y-76060944D01*
X145360944Y-74336819D01*
X145422267Y-74303334D01*
X145448625Y-74300500D01*
X156151374Y-74300500D01*
X156218413Y-74320185D01*
X156239055Y-74336819D01*
X166317926Y-84415690D01*
X166448386Y-84510474D01*
X166491051Y-84565802D01*
X166499500Y-84610791D01*
X166499500Y-123794486D01*
X166529059Y-123981118D01*
X166587454Y-124160836D01*
X166673240Y-124329199D01*
X166784310Y-124482073D01*
X166917927Y-124615690D01*
X167070801Y-124726760D01*
X167150347Y-124767290D01*
X167239163Y-124812545D01*
X167239165Y-124812545D01*
X167239168Y-124812547D01*
X167329350Y-124841849D01*
X167418881Y-124870940D01*
X167605514Y-124900500D01*
X167605519Y-124900500D01*
X167794486Y-124900500D01*
X167981118Y-124870940D01*
X168160832Y-124812547D01*
X168329199Y-124726760D01*
X168482073Y-124615690D01*
X168615690Y-124482073D01*
X168726760Y-124329199D01*
X168812547Y-124160832D01*
X168870940Y-123981118D01*
X168900500Y-123794486D01*
X168900500Y-83405513D01*
X168870940Y-83218881D01*
X168812545Y-83039163D01*
X168726759Y-82870800D01*
X168615690Y-82717927D01*
X168482073Y-82584310D01*
X168329199Y-82473240D01*
X168324685Y-82470940D01*
X168160836Y-82387454D01*
X167981118Y-82329059D01*
X167794486Y-82299500D01*
X167794481Y-82299500D01*
X167648626Y-82299500D01*
X167581587Y-82279815D01*
X167560945Y-82263181D01*
X157482076Y-72184312D01*
X157482074Y-72184310D01*
X157329199Y-72073240D01*
X157160836Y-71987454D01*
X156981118Y-71929059D01*
X156794486Y-71899500D01*
X156794481Y-71899500D01*
X144994482Y-71899500D01*
X144805519Y-71899500D01*
X144805514Y-71899500D01*
X144618881Y-71929059D01*
X144439163Y-71987454D01*
X144270800Y-72073240D01*
X144183579Y-72136610D01*
X144117927Y-72184310D01*
X144117925Y-72184312D01*
X144117924Y-72184312D01*
X142487680Y-73814555D01*
X142426357Y-73848040D01*
X142356665Y-73843056D01*
X142312318Y-73814555D01*
X140682076Y-72184312D01*
X140682075Y-72184311D01*
X140682074Y-72184310D01*
X140529199Y-72073240D01*
X140360836Y-71987454D01*
X140181118Y-71929059D01*
X139994486Y-71899500D01*
X139994481Y-71899500D01*
X132094482Y-71899500D01*
X131905519Y-71899500D01*
X131905514Y-71899500D01*
X131718881Y-71929059D01*
X131539163Y-71987454D01*
X131370800Y-72073240D01*
X131283579Y-72136610D01*
X131217927Y-72184310D01*
X131217925Y-72184312D01*
X131217924Y-72184312D01*
X125700485Y-77701750D01*
X119084312Y-84317923D01*
X118973240Y-84470800D01*
X118887454Y-84639163D01*
X118829059Y-84818881D01*
X118799500Y-85005513D01*
X116000500Y-85005513D01*
X116000500Y-66911304D01*
X129599500Y-66911304D01*
X129599500Y-67088695D01*
X129634103Y-67262658D01*
X129634106Y-67262667D01*
X129701983Y-67426540D01*
X129701990Y-67426553D01*
X129800535Y-67574034D01*
X129800538Y-67574038D01*
X129925961Y-67699461D01*
X129925965Y-67699464D01*
X130073446Y-67798009D01*
X130073459Y-67798016D01*
X130196363Y-67848923D01*
X130237334Y-67865894D01*
X130237336Y-67865894D01*
X130237341Y-67865896D01*
X130411304Y-67900499D01*
X130411307Y-67900500D01*
X130411309Y-67900500D01*
X130588693Y-67900500D01*
X130588694Y-67900499D01*
X130646682Y-67888964D01*
X130762658Y-67865896D01*
X130762661Y-67865894D01*
X130762666Y-67865894D01*
X130926547Y-67798013D01*
X131074035Y-67699464D01*
X131199464Y-67574035D01*
X131298013Y-67426547D01*
X131298014Y-67426544D01*
X131298016Y-67426541D01*
X131335439Y-67336192D01*
X131379279Y-67281788D01*
X131445573Y-67259723D01*
X131513273Y-67277002D01*
X131560884Y-67328139D01*
X131564561Y-67336192D01*
X131601983Y-67426541D01*
X131601990Y-67426553D01*
X131700535Y-67574034D01*
X131700538Y-67574038D01*
X131825961Y-67699461D01*
X131825965Y-67699464D01*
X131973446Y-67798009D01*
X131973459Y-67798016D01*
X132096363Y-67848923D01*
X132137334Y-67865894D01*
X132137336Y-67865894D01*
X132137341Y-67865896D01*
X132311304Y-67900499D01*
X132311307Y-67900500D01*
X132311309Y-67900500D01*
X132488693Y-67900500D01*
X132488694Y-67900499D01*
X132546682Y-67888964D01*
X132662658Y-67865896D01*
X132662661Y-67865894D01*
X132662666Y-67865894D01*
X132826547Y-67798013D01*
X132974035Y-67699464D01*
X133099464Y-67574035D01*
X133198013Y-67426547D01*
X133265894Y-67262666D01*
X133266480Y-67259723D01*
X133288964Y-67146682D01*
X133300500Y-67088691D01*
X133300500Y-66911309D01*
X133300500Y-66911306D01*
X133300499Y-66911304D01*
X133265896Y-66737341D01*
X133265893Y-66737332D01*
X133198016Y-66573459D01*
X133198009Y-66573446D01*
X133099464Y-66425965D01*
X133099461Y-66425961D01*
X132974038Y-66300538D01*
X132974034Y-66300535D01*
X132826553Y-66201990D01*
X132826540Y-66201983D01*
X132662667Y-66134106D01*
X132662658Y-66134103D01*
X132488694Y-66099500D01*
X132488691Y-66099500D01*
X132311309Y-66099500D01*
X132311306Y-66099500D01*
X132137341Y-66134103D01*
X132137332Y-66134106D01*
X131973459Y-66201983D01*
X131973446Y-66201990D01*
X131825965Y-66300535D01*
X131825961Y-66300538D01*
X131700538Y-66425961D01*
X131700535Y-66425965D01*
X131601990Y-66573446D01*
X131601983Y-66573459D01*
X131564561Y-66663807D01*
X131520720Y-66718211D01*
X131454426Y-66740276D01*
X131386727Y-66722997D01*
X131339116Y-66671860D01*
X131335439Y-66663807D01*
X131298016Y-66573459D01*
X131298009Y-66573446D01*
X131199464Y-66425965D01*
X131199461Y-66425961D01*
X131074038Y-66300538D01*
X131074034Y-66300535D01*
X130926553Y-66201990D01*
X130926540Y-66201983D01*
X130762667Y-66134106D01*
X130762658Y-66134103D01*
X130588694Y-66099500D01*
X130588691Y-66099500D01*
X130411309Y-66099500D01*
X130411306Y-66099500D01*
X130237341Y-66134103D01*
X130237332Y-66134106D01*
X130073459Y-66201983D01*
X130073446Y-66201990D01*
X129925965Y-66300535D01*
X129925961Y-66300538D01*
X129800538Y-66425961D01*
X129800535Y-66425965D01*
X129701990Y-66573446D01*
X129701983Y-66573459D01*
X129634106Y-66737332D01*
X129634103Y-66737341D01*
X129599500Y-66911304D01*
X116000500Y-66911304D01*
X116000500Y-65238995D01*
X121299499Y-65238995D01*
X121326418Y-65374322D01*
X121326421Y-65374332D01*
X121379221Y-65501804D01*
X121379228Y-65501817D01*
X121455885Y-65616541D01*
X121455888Y-65616545D01*
X121553454Y-65714111D01*
X121553458Y-65714114D01*
X121668182Y-65790771D01*
X121668195Y-65790778D01*
X121795667Y-65843578D01*
X121795672Y-65843580D01*
X121795676Y-65843580D01*
X121795677Y-65843581D01*
X121931004Y-65870500D01*
X121931007Y-65870500D01*
X122068995Y-65870500D01*
X122160041Y-65852389D01*
X122204328Y-65843580D01*
X122331811Y-65790775D01*
X122446542Y-65714114D01*
X122544114Y-65616542D01*
X122620775Y-65501811D01*
X122673580Y-65374328D01*
X122700500Y-65238995D01*
X124299499Y-65238995D01*
X124326418Y-65374322D01*
X124326421Y-65374332D01*
X124379221Y-65501804D01*
X124379228Y-65501817D01*
X124455885Y-65616541D01*
X124455888Y-65616545D01*
X124553454Y-65714111D01*
X124553458Y-65714114D01*
X124668182Y-65790771D01*
X124668195Y-65790778D01*
X124795667Y-65843578D01*
X124795672Y-65843580D01*
X124795676Y-65843580D01*
X124795677Y-65843581D01*
X124931004Y-65870500D01*
X124931007Y-65870500D01*
X125068995Y-65870500D01*
X125160041Y-65852389D01*
X125204328Y-65843580D01*
X125331811Y-65790775D01*
X125446542Y-65714114D01*
X125544114Y-65616542D01*
X125620775Y-65501811D01*
X125673580Y-65374328D01*
X125700500Y-65238993D01*
X125700500Y-65101007D01*
X125700500Y-65101004D01*
X125673581Y-64965677D01*
X125673580Y-64965676D01*
X125673580Y-64965672D01*
X125673578Y-64965667D01*
X125620778Y-64838195D01*
X125620771Y-64838182D01*
X125544114Y-64723458D01*
X125544111Y-64723454D01*
X125446545Y-64625888D01*
X125446541Y-64625885D01*
X125331817Y-64549228D01*
X125331804Y-64549221D01*
X125204332Y-64496421D01*
X125204322Y-64496418D01*
X125068995Y-64469500D01*
X125068993Y-64469500D01*
X124931007Y-64469500D01*
X124931005Y-64469500D01*
X124795677Y-64496418D01*
X124795667Y-64496421D01*
X124668195Y-64549221D01*
X124668182Y-64549228D01*
X124553458Y-64625885D01*
X124553454Y-64625888D01*
X124455888Y-64723454D01*
X124455885Y-64723458D01*
X124379228Y-64838182D01*
X124379221Y-64838195D01*
X124326421Y-64965667D01*
X124326418Y-64965677D01*
X124299500Y-65101004D01*
X124299500Y-65101007D01*
X124299500Y-65238993D01*
X124299500Y-65238995D01*
X124299499Y-65238995D01*
X122700500Y-65238995D01*
X122700500Y-65238993D01*
X122700500Y-65101007D01*
X122700500Y-65101004D01*
X122673581Y-64965677D01*
X122673580Y-64965676D01*
X122673580Y-64965672D01*
X122673578Y-64965667D01*
X122620778Y-64838195D01*
X122620771Y-64838182D01*
X122544114Y-64723458D01*
X122544111Y-64723454D01*
X122446545Y-64625888D01*
X122446541Y-64625885D01*
X122331817Y-64549228D01*
X122331804Y-64549221D01*
X122204332Y-64496421D01*
X122204322Y-64496418D01*
X122068995Y-64469500D01*
X122068993Y-64469500D01*
X121931007Y-64469500D01*
X121931005Y-64469500D01*
X121795677Y-64496418D01*
X121795667Y-64496421D01*
X121668195Y-64549221D01*
X121668182Y-64549228D01*
X121553458Y-64625885D01*
X121553454Y-64625888D01*
X121455888Y-64723454D01*
X121455885Y-64723458D01*
X121379228Y-64838182D01*
X121379221Y-64838195D01*
X121326421Y-64965667D01*
X121326418Y-64965677D01*
X121299500Y-65101004D01*
X121299500Y-65101007D01*
X121299500Y-65238993D01*
X121299500Y-65238995D01*
X121299499Y-65238995D01*
X116000500Y-65238995D01*
X116000500Y-63004427D01*
X116000816Y-62995581D01*
X116015130Y-62795443D01*
X116015131Y-62795434D01*
X116017646Y-62777938D01*
X116059356Y-62586199D01*
X116064333Y-62569248D01*
X116132911Y-62385385D01*
X116140259Y-62369298D01*
X116205673Y-62249500D01*
X116234291Y-62197089D01*
X116243845Y-62182221D01*
X116361448Y-62025123D01*
X116373020Y-62011769D01*
X116511769Y-61873020D01*
X116525123Y-61861448D01*
X116682221Y-61743845D01*
X116697089Y-61734291D01*
X116869298Y-61640258D01*
X116885385Y-61632911D01*
X117069248Y-61564333D01*
X117086199Y-61559356D01*
X117277938Y-61517646D01*
X117295436Y-61515130D01*
X117495582Y-61500816D01*
X117504428Y-61500500D01*
X117565892Y-61500500D01*
X148134108Y-61500500D01*
X148193038Y-61500500D01*
X148206922Y-61501280D01*
G37*
%TD.AperFunction*%
%TD*%
%TA.AperFunction,NonConductor*%
G36*
X192104418Y-58200816D02*
G01*
X192304561Y-58215130D01*
X192322063Y-58217647D01*
X192513797Y-58259355D01*
X192530755Y-58264334D01*
X192714609Y-58332909D01*
X192730701Y-58340259D01*
X192902904Y-58434288D01*
X192917784Y-58443849D01*
X193074867Y-58561441D01*
X193088237Y-58573027D01*
X193226972Y-58711762D01*
X193238558Y-58725132D01*
X193356146Y-58882210D01*
X193365711Y-58897095D01*
X193459740Y-59069298D01*
X193467090Y-59085390D01*
X193535662Y-59269236D01*
X193540646Y-59286212D01*
X193582351Y-59477931D01*
X193584869Y-59495443D01*
X193599184Y-59695583D01*
X193599500Y-59704429D01*
X193599500Y-59772393D01*
X193599676Y-59775043D01*
X193799487Y-143595453D01*
X193799171Y-143604595D01*
X193784869Y-143804556D01*
X193782351Y-143822068D01*
X193740646Y-144013787D01*
X193735662Y-144030763D01*
X193667090Y-144214609D01*
X193659740Y-144230701D01*
X193565711Y-144402904D01*
X193556146Y-144417789D01*
X193438558Y-144574867D01*
X193426972Y-144588237D01*
X193288237Y-144726972D01*
X193274867Y-144738558D01*
X193117789Y-144856146D01*
X193102904Y-144865711D01*
X192930701Y-144959740D01*
X192914609Y-144967090D01*
X192730763Y-145035662D01*
X192713787Y-145040646D01*
X192522068Y-145082351D01*
X192504557Y-145084869D01*
X192323779Y-145097799D01*
X192304417Y-145099184D01*
X192295572Y-145099500D01*
X177004875Y-145099500D01*
X176995146Y-145099118D01*
X176790797Y-145083035D01*
X176771579Y-145079991D01*
X176577020Y-145033282D01*
X176558514Y-145027269D01*
X176373654Y-144950697D01*
X176356317Y-144941863D01*
X176231303Y-144865254D01*
X176185715Y-144837317D01*
X176169976Y-144825882D01*
X176017825Y-144695933D01*
X176004066Y-144682174D01*
X175874117Y-144530023D01*
X175862683Y-144514287D01*
X175786071Y-144389268D01*
X175758136Y-144343682D01*
X175749302Y-144326345D01*
X175703019Y-144214609D01*
X175672728Y-144141478D01*
X175666719Y-144122986D01*
X175620007Y-143928415D01*
X175616964Y-143909202D01*
X175616279Y-143900500D01*
X175600882Y-143704853D01*
X175600500Y-143695124D01*
X175600500Y-118192238D01*
X175565027Y-117979656D01*
X175565026Y-117979652D01*
X175545181Y-117921847D01*
X175539525Y-117865397D01*
X175540500Y-117857993D01*
X175540500Y-117742009D01*
X175540500Y-117742007D01*
X175510481Y-117629973D01*
X175471236Y-117562000D01*
X175454763Y-117494102D01*
X175471237Y-117437999D01*
X175510478Y-117370032D01*
X175510479Y-117370030D01*
X175510481Y-117370027D01*
X175540500Y-117257993D01*
X175540500Y-117142007D01*
X175510481Y-117029973D01*
X175510258Y-117029587D01*
X175471237Y-116962001D01*
X175454763Y-116894102D01*
X175471237Y-116837999D01*
X175510478Y-116770032D01*
X175510479Y-116770030D01*
X175510481Y-116770027D01*
X175540500Y-116657993D01*
X175540500Y-116542007D01*
X175510481Y-116429973D01*
X175471236Y-116362000D01*
X175454763Y-116294102D01*
X175471237Y-116237999D01*
X175510478Y-116170032D01*
X175510479Y-116170030D01*
X175510481Y-116170027D01*
X175540500Y-116057993D01*
X175540500Y-115942007D01*
X175510481Y-115829973D01*
X175471236Y-115762000D01*
X175454763Y-115694102D01*
X175471237Y-115637999D01*
X175510478Y-115570032D01*
X175510479Y-115570030D01*
X175510481Y-115570027D01*
X175540500Y-115457993D01*
X175540500Y-115342007D01*
X175510481Y-115229973D01*
X175471236Y-115162000D01*
X175454763Y-115094102D01*
X175471237Y-115037999D01*
X175510478Y-114970032D01*
X175510479Y-114970030D01*
X175510481Y-114970027D01*
X175540500Y-114857993D01*
X175540500Y-114742007D01*
X175540498Y-114742002D01*
X175539524Y-114734601D01*
X175545182Y-114678148D01*
X175565026Y-114620348D01*
X175600500Y-114407762D01*
X175600500Y-114300000D01*
X175600500Y-114234108D01*
X175600500Y-113234108D01*
X175600500Y-82634108D01*
X175600500Y-81634108D01*
X175600500Y-81592238D01*
X175568505Y-81400500D01*
X175565027Y-81379656D01*
X175565026Y-81379652D01*
X175545181Y-81321847D01*
X175539525Y-81265397D01*
X175540500Y-81257993D01*
X175540500Y-81142009D01*
X175540500Y-81142007D01*
X175510481Y-81029973D01*
X175471236Y-80962000D01*
X175454763Y-80894102D01*
X175471237Y-80837999D01*
X175510478Y-80770032D01*
X175510479Y-80770030D01*
X175510481Y-80770027D01*
X175540500Y-80657993D01*
X175540500Y-80542007D01*
X175510481Y-80429973D01*
X175510258Y-80429587D01*
X175471237Y-80362001D01*
X175454763Y-80294102D01*
X175471237Y-80237999D01*
X175510478Y-80170032D01*
X175510479Y-80170030D01*
X175510481Y-80170027D01*
X175540500Y-80057993D01*
X175540500Y-79942007D01*
X175510481Y-79829973D01*
X175471236Y-79762000D01*
X175454763Y-79694102D01*
X175471237Y-79637999D01*
X175510478Y-79570032D01*
X175510479Y-79570030D01*
X175510481Y-79570027D01*
X175540500Y-79457993D01*
X175540500Y-79342007D01*
X175510481Y-79229973D01*
X175471236Y-79162000D01*
X175454763Y-79094102D01*
X175471237Y-79037999D01*
X175510478Y-78970032D01*
X175510479Y-78970030D01*
X175510481Y-78970027D01*
X175540500Y-78857993D01*
X175540500Y-78742007D01*
X175510481Y-78629973D01*
X175500856Y-78613303D01*
X175471237Y-78562001D01*
X175454763Y-78494102D01*
X175471237Y-78437999D01*
X175510478Y-78370032D01*
X175510479Y-78370030D01*
X175510481Y-78370027D01*
X175540500Y-78257993D01*
X175540500Y-78142007D01*
X175540498Y-78142002D01*
X175539524Y-78134601D01*
X175539788Y-78128973D01*
X175538691Y-78125931D01*
X175540588Y-78111959D01*
X175541586Y-78090756D01*
X175543048Y-78084364D01*
X175565026Y-78020348D01*
X175579417Y-77934108D01*
X178999500Y-77934108D01*
X178999500Y-126065891D01*
X179033608Y-126193187D01*
X179066554Y-126250250D01*
X179099500Y-126307314D01*
X179192686Y-126400500D01*
X179291521Y-126457563D01*
X179306602Y-126466270D01*
X179306814Y-126466392D01*
X179434108Y-126500500D01*
X179565892Y-126500500D01*
X181875500Y-126500500D01*
X181942539Y-126520185D01*
X181988294Y-126572989D01*
X181999500Y-126624500D01*
X181999500Y-136565891D01*
X182033608Y-136693187D01*
X182066554Y-136750250D01*
X182099500Y-136807314D01*
X182192686Y-136900500D01*
X182306814Y-136966392D01*
X182434108Y-137000500D01*
X183525500Y-137000500D01*
X183592539Y-137020185D01*
X183638294Y-137072989D01*
X183649500Y-137124500D01*
X183649500Y-141315891D01*
X183683608Y-141443187D01*
X183716554Y-141500250D01*
X183749500Y-141557314D01*
X183842686Y-141650500D01*
X183956814Y-141716392D01*
X184084108Y-141750500D01*
X184084110Y-141750500D01*
X185915890Y-141750500D01*
X185915892Y-141750500D01*
X186043186Y-141716392D01*
X186157314Y-141650500D01*
X186250500Y-141557314D01*
X186316392Y-141443186D01*
X186350500Y-141315892D01*
X186350500Y-137124500D01*
X186370185Y-137057461D01*
X186422989Y-137011706D01*
X186474500Y-137000500D01*
X187565890Y-137000500D01*
X187565892Y-137000500D01*
X187693186Y-136966392D01*
X187807314Y-136900500D01*
X187900500Y-136807314D01*
X187966392Y-136693186D01*
X188000500Y-136565892D01*
X188000500Y-126624500D01*
X188020185Y-126557461D01*
X188072989Y-126511706D01*
X188124500Y-126500500D01*
X190565890Y-126500500D01*
X190565892Y-126500500D01*
X190693186Y-126466392D01*
X190807314Y-126400500D01*
X190900500Y-126307314D01*
X190966392Y-126193186D01*
X191000500Y-126065892D01*
X191000500Y-77934108D01*
X190966392Y-77806814D01*
X190900500Y-77692686D01*
X190807314Y-77599500D01*
X190750250Y-77566554D01*
X190693187Y-77533608D01*
X190629539Y-77516554D01*
X190565892Y-77499500D01*
X190565891Y-77499500D01*
X188124500Y-77499500D01*
X188057461Y-77479815D01*
X188011706Y-77427011D01*
X188000500Y-77375500D01*
X188000500Y-67434110D01*
X188000500Y-67434108D01*
X187966392Y-67306814D01*
X187900500Y-67192686D01*
X187807314Y-67099500D01*
X187750250Y-67066554D01*
X187693187Y-67033608D01*
X187629539Y-67016554D01*
X187565892Y-66999500D01*
X187565891Y-66999500D01*
X186474500Y-66999500D01*
X186407461Y-66979815D01*
X186361706Y-66927011D01*
X186350500Y-66875500D01*
X186350500Y-62684110D01*
X186350500Y-62684108D01*
X186316392Y-62556814D01*
X186311562Y-62548449D01*
X186307563Y-62541521D01*
X186250500Y-62442686D01*
X186157314Y-62349500D01*
X186100250Y-62316554D01*
X186043187Y-62283608D01*
X185979539Y-62266554D01*
X185915892Y-62249500D01*
X184215892Y-62249500D01*
X184084108Y-62249500D01*
X183956812Y-62283608D01*
X183842686Y-62349500D01*
X183842683Y-62349502D01*
X183749502Y-62442683D01*
X183749500Y-62442686D01*
X183683608Y-62556812D01*
X183649500Y-62684108D01*
X183649500Y-66875500D01*
X183629815Y-66942539D01*
X183577011Y-66988294D01*
X183525500Y-66999500D01*
X182434108Y-66999500D01*
X182306812Y-67033608D01*
X182192686Y-67099500D01*
X182192683Y-67099502D01*
X182099502Y-67192683D01*
X182099500Y-67192686D01*
X182033608Y-67306812D01*
X181999500Y-67434108D01*
X181999500Y-77375500D01*
X181979815Y-77442539D01*
X181927011Y-77488294D01*
X181875500Y-77499500D01*
X179434108Y-77499500D01*
X179306812Y-77533608D01*
X179192686Y-77599500D01*
X179192683Y-77599502D01*
X179099502Y-77692683D01*
X179099500Y-77692686D01*
X179033608Y-77806812D01*
X178999500Y-77934108D01*
X175579417Y-77934108D01*
X175600500Y-77807762D01*
X175600500Y-77700000D01*
X175600500Y-77634108D01*
X175600500Y-76634108D01*
X175600500Y-59704427D01*
X175600816Y-59695581D01*
X175615130Y-59495443D01*
X175617646Y-59477938D01*
X175659356Y-59286199D01*
X175664333Y-59269248D01*
X175732911Y-59085385D01*
X175740259Y-59069298D01*
X175802815Y-58954734D01*
X175834291Y-58897089D01*
X175843845Y-58882221D01*
X175961448Y-58725123D01*
X175973020Y-58711769D01*
X176111769Y-58573020D01*
X176125123Y-58561448D01*
X176282221Y-58443845D01*
X176297089Y-58434291D01*
X176469298Y-58340258D01*
X176485385Y-58332911D01*
X176669248Y-58264333D01*
X176686199Y-58259356D01*
X176877938Y-58217646D01*
X176895436Y-58215130D01*
X177095582Y-58200816D01*
X177104428Y-58200500D01*
X177165892Y-58200500D01*
X192034108Y-58200500D01*
X192095572Y-58200500D01*
X192104418Y-58200816D01*
G37*
%TD.AperFunction*%
M02*
