%TF.GenerationSoftware,KiCad,Pcbnew,9.0.3*%
%TF.CreationDate,2025-11-04T21:30:19+11:00*%
%TF.ProjectId,test_project,74657374-5f70-4726-9f6a-6563742e6b69,rev?*%
%TF.SameCoordinates,Original*%
%TF.FileFunction,Legend,Top*%
%TF.FilePolarity,Positive*%
%FSLAX46Y46*%
G04 Gerber Fmt 4.6, Leading zero omitted, Abs format (unit mm)*
G04 Created by KiCad (PCBNEW 9.0.3) date 2025-11-04 21:30:19*
%MOMM*%
%LPD*%
G01*
G04 APERTURE LIST*
%ADD10C,0.150000*%
%ADD11C,0.060000*%
%ADD12C,0.100000*%
%ADD13C,0.110000*%
%ADD14C,0.080000*%
%ADD15C,0.120000*%
%ADD16C,0.200000*%
%ADD17C,0.127000*%
G04 APERTURE END LIST*
D10*
X122166667Y-69107200D02*
X122309524Y-69154819D01*
X122309524Y-69154819D02*
X122547619Y-69154819D01*
X122547619Y-69154819D02*
X122642857Y-69107200D01*
X122642857Y-69107200D02*
X122690476Y-69059580D01*
X122690476Y-69059580D02*
X122738095Y-68964342D01*
X122738095Y-68964342D02*
X122738095Y-68869104D01*
X122738095Y-68869104D02*
X122690476Y-68773866D01*
X122690476Y-68773866D02*
X122642857Y-68726247D01*
X122642857Y-68726247D02*
X122547619Y-68678628D01*
X122547619Y-68678628D02*
X122357143Y-68631009D01*
X122357143Y-68631009D02*
X122261905Y-68583390D01*
X122261905Y-68583390D02*
X122214286Y-68535771D01*
X122214286Y-68535771D02*
X122166667Y-68440533D01*
X122166667Y-68440533D02*
X122166667Y-68345295D01*
X122166667Y-68345295D02*
X122214286Y-68250057D01*
X122214286Y-68250057D02*
X122261905Y-68202438D01*
X122261905Y-68202438D02*
X122357143Y-68154819D01*
X122357143Y-68154819D02*
X122595238Y-68154819D01*
X122595238Y-68154819D02*
X122738095Y-68202438D01*
X123071429Y-68154819D02*
X123309524Y-69154819D01*
X123309524Y-69154819D02*
X123500000Y-68440533D01*
X123500000Y-68440533D02*
X123690476Y-69154819D01*
X123690476Y-69154819D02*
X123928572Y-68154819D01*
X124833333Y-69154819D02*
X124261905Y-69154819D01*
X124547619Y-69154819D02*
X124547619Y-68154819D01*
X124547619Y-68154819D02*
X124452381Y-68297676D01*
X124452381Y-68297676D02*
X124357143Y-68392914D01*
X124357143Y-68392914D02*
X124261905Y-68440533D01*
X122166667Y-69107200D02*
X122309524Y-69154819D01*
X122309524Y-69154819D02*
X122547619Y-69154819D01*
X122547619Y-69154819D02*
X122642857Y-69107200D01*
X122642857Y-69107200D02*
X122690476Y-69059580D01*
X122690476Y-69059580D02*
X122738095Y-68964342D01*
X122738095Y-68964342D02*
X122738095Y-68869104D01*
X122738095Y-68869104D02*
X122690476Y-68773866D01*
X122690476Y-68773866D02*
X122642857Y-68726247D01*
X122642857Y-68726247D02*
X122547619Y-68678628D01*
X122547619Y-68678628D02*
X122357143Y-68631009D01*
X122357143Y-68631009D02*
X122261905Y-68583390D01*
X122261905Y-68583390D02*
X122214286Y-68535771D01*
X122214286Y-68535771D02*
X122166667Y-68440533D01*
X122166667Y-68440533D02*
X122166667Y-68345295D01*
X122166667Y-68345295D02*
X122214286Y-68250057D01*
X122214286Y-68250057D02*
X122261905Y-68202438D01*
X122261905Y-68202438D02*
X122357143Y-68154819D01*
X122357143Y-68154819D02*
X122595238Y-68154819D01*
X122595238Y-68154819D02*
X122738095Y-68202438D01*
X123071429Y-68154819D02*
X123309524Y-69154819D01*
X123309524Y-69154819D02*
X123500000Y-68440533D01*
X123500000Y-68440533D02*
X123690476Y-69154819D01*
X123690476Y-69154819D02*
X123928572Y-68154819D01*
X124833333Y-69154819D02*
X124261905Y-69154819D01*
X124547619Y-69154819D02*
X124547619Y-68154819D01*
X124547619Y-68154819D02*
X124452381Y-68297676D01*
X124452381Y-68297676D02*
X124357143Y-68392914D01*
X124357143Y-68392914D02*
X124261905Y-68440533D01*
X140338095Y-104654819D02*
X140909523Y-104654819D01*
X140623809Y-105654819D02*
X140623809Y-104654819D01*
X141242857Y-105654819D02*
X141242857Y-104654819D01*
X141242857Y-104654819D02*
X141623809Y-104654819D01*
X141623809Y-104654819D02*
X141719047Y-104702438D01*
X141719047Y-104702438D02*
X141766666Y-104750057D01*
X141766666Y-104750057D02*
X141814285Y-104845295D01*
X141814285Y-104845295D02*
X141814285Y-104988152D01*
X141814285Y-104988152D02*
X141766666Y-105083390D01*
X141766666Y-105083390D02*
X141719047Y-105131009D01*
X141719047Y-105131009D02*
X141623809Y-105178628D01*
X141623809Y-105178628D02*
X141242857Y-105178628D01*
X142719047Y-104654819D02*
X142242857Y-104654819D01*
X142242857Y-104654819D02*
X142195238Y-105131009D01*
X142195238Y-105131009D02*
X142242857Y-105083390D01*
X142242857Y-105083390D02*
X142338095Y-105035771D01*
X142338095Y-105035771D02*
X142576190Y-105035771D01*
X142576190Y-105035771D02*
X142671428Y-105083390D01*
X142671428Y-105083390D02*
X142719047Y-105131009D01*
X142719047Y-105131009D02*
X142766666Y-105226247D01*
X142766666Y-105226247D02*
X142766666Y-105464342D01*
X142766666Y-105464342D02*
X142719047Y-105559580D01*
X142719047Y-105559580D02*
X142671428Y-105607200D01*
X142671428Y-105607200D02*
X142576190Y-105654819D01*
X142576190Y-105654819D02*
X142338095Y-105654819D01*
X142338095Y-105654819D02*
X142242857Y-105607200D01*
X142242857Y-105607200D02*
X142195238Y-105559580D01*
X135938095Y-110454819D02*
X136509523Y-110454819D01*
X136223809Y-111454819D02*
X136223809Y-110454819D01*
X136842857Y-111454819D02*
X136842857Y-110454819D01*
X136842857Y-110454819D02*
X137223809Y-110454819D01*
X137223809Y-110454819D02*
X137319047Y-110502438D01*
X137319047Y-110502438D02*
X137366666Y-110550057D01*
X137366666Y-110550057D02*
X137414285Y-110645295D01*
X137414285Y-110645295D02*
X137414285Y-110788152D01*
X137414285Y-110788152D02*
X137366666Y-110883390D01*
X137366666Y-110883390D02*
X137319047Y-110931009D01*
X137319047Y-110931009D02*
X137223809Y-110978628D01*
X137223809Y-110978628D02*
X136842857Y-110978628D01*
X138271428Y-110454819D02*
X138080952Y-110454819D01*
X138080952Y-110454819D02*
X137985714Y-110502438D01*
X137985714Y-110502438D02*
X137938095Y-110550057D01*
X137938095Y-110550057D02*
X137842857Y-110692914D01*
X137842857Y-110692914D02*
X137795238Y-110883390D01*
X137795238Y-110883390D02*
X137795238Y-111264342D01*
X137795238Y-111264342D02*
X137842857Y-111359580D01*
X137842857Y-111359580D02*
X137890476Y-111407200D01*
X137890476Y-111407200D02*
X137985714Y-111454819D01*
X137985714Y-111454819D02*
X138176190Y-111454819D01*
X138176190Y-111454819D02*
X138271428Y-111407200D01*
X138271428Y-111407200D02*
X138319047Y-111359580D01*
X138319047Y-111359580D02*
X138366666Y-111264342D01*
X138366666Y-111264342D02*
X138366666Y-111026247D01*
X138366666Y-111026247D02*
X138319047Y-110931009D01*
X138319047Y-110931009D02*
X138271428Y-110883390D01*
X138271428Y-110883390D02*
X138176190Y-110835771D01*
X138176190Y-110835771D02*
X137985714Y-110835771D01*
X137985714Y-110835771D02*
X137890476Y-110883390D01*
X137890476Y-110883390D02*
X137842857Y-110931009D01*
X137842857Y-110931009D02*
X137795238Y-111026247D01*
D11*
X130543832Y-99766666D02*
X130562880Y-99785714D01*
X130562880Y-99785714D02*
X130581927Y-99842856D01*
X130581927Y-99842856D02*
X130581927Y-99880952D01*
X130581927Y-99880952D02*
X130562880Y-99938095D01*
X130562880Y-99938095D02*
X130524784Y-99976190D01*
X130524784Y-99976190D02*
X130486689Y-99995237D01*
X130486689Y-99995237D02*
X130410499Y-100014285D01*
X130410499Y-100014285D02*
X130353356Y-100014285D01*
X130353356Y-100014285D02*
X130277165Y-99995237D01*
X130277165Y-99995237D02*
X130239070Y-99976190D01*
X130239070Y-99976190D02*
X130200975Y-99938095D01*
X130200975Y-99938095D02*
X130181927Y-99880952D01*
X130181927Y-99880952D02*
X130181927Y-99842856D01*
X130181927Y-99842856D02*
X130200975Y-99785714D01*
X130200975Y-99785714D02*
X130220022Y-99766666D01*
X130181927Y-99404761D02*
X130181927Y-99595237D01*
X130181927Y-99595237D02*
X130372403Y-99614285D01*
X130372403Y-99614285D02*
X130353356Y-99595237D01*
X130353356Y-99595237D02*
X130334308Y-99557142D01*
X130334308Y-99557142D02*
X130334308Y-99461904D01*
X130334308Y-99461904D02*
X130353356Y-99423809D01*
X130353356Y-99423809D02*
X130372403Y-99404761D01*
X130372403Y-99404761D02*
X130410499Y-99385714D01*
X130410499Y-99385714D02*
X130505737Y-99385714D01*
X130505737Y-99385714D02*
X130543832Y-99404761D01*
X130543832Y-99404761D02*
X130562880Y-99423809D01*
X130562880Y-99423809D02*
X130581927Y-99461904D01*
X130581927Y-99461904D02*
X130581927Y-99557142D01*
X130581927Y-99557142D02*
X130562880Y-99595237D01*
X130562880Y-99595237D02*
X130543832Y-99614285D01*
X167943832Y-94707142D02*
X167962880Y-94726190D01*
X167962880Y-94726190D02*
X167981927Y-94783332D01*
X167981927Y-94783332D02*
X167981927Y-94821428D01*
X167981927Y-94821428D02*
X167962880Y-94878571D01*
X167962880Y-94878571D02*
X167924784Y-94916666D01*
X167924784Y-94916666D02*
X167886689Y-94935713D01*
X167886689Y-94935713D02*
X167810499Y-94954761D01*
X167810499Y-94954761D02*
X167753356Y-94954761D01*
X167753356Y-94954761D02*
X167677165Y-94935713D01*
X167677165Y-94935713D02*
X167639070Y-94916666D01*
X167639070Y-94916666D02*
X167600975Y-94878571D01*
X167600975Y-94878571D02*
X167581927Y-94821428D01*
X167581927Y-94821428D02*
X167581927Y-94783332D01*
X167581927Y-94783332D02*
X167600975Y-94726190D01*
X167600975Y-94726190D02*
X167620022Y-94707142D01*
X167981927Y-94326190D02*
X167981927Y-94554761D01*
X167981927Y-94440475D02*
X167581927Y-94440475D01*
X167581927Y-94440475D02*
X167639070Y-94478571D01*
X167639070Y-94478571D02*
X167677165Y-94516666D01*
X167677165Y-94516666D02*
X167696213Y-94554761D01*
X167581927Y-93964285D02*
X167581927Y-94154761D01*
X167581927Y-94154761D02*
X167772403Y-94173809D01*
X167772403Y-94173809D02*
X167753356Y-94154761D01*
X167753356Y-94154761D02*
X167734308Y-94116666D01*
X167734308Y-94116666D02*
X167734308Y-94021428D01*
X167734308Y-94021428D02*
X167753356Y-93983333D01*
X167753356Y-93983333D02*
X167772403Y-93964285D01*
X167772403Y-93964285D02*
X167810499Y-93945238D01*
X167810499Y-93945238D02*
X167905737Y-93945238D01*
X167905737Y-93945238D02*
X167943832Y-93964285D01*
X167943832Y-93964285D02*
X167962880Y-93983333D01*
X167962880Y-93983333D02*
X167981927Y-94021428D01*
X167981927Y-94021428D02*
X167981927Y-94116666D01*
X167981927Y-94116666D02*
X167962880Y-94154761D01*
X167962880Y-94154761D02*
X167943832Y-94173809D01*
D10*
X165419047Y-97495180D02*
X165895237Y-97495180D01*
X165895237Y-97495180D02*
X165895237Y-98495180D01*
X165085713Y-98018990D02*
X164752380Y-98018990D01*
X164609523Y-97495180D02*
X165085713Y-97495180D01*
X165085713Y-97495180D02*
X165085713Y-98495180D01*
X165085713Y-98495180D02*
X164609523Y-98495180D01*
X164180951Y-97495180D02*
X164180951Y-98495180D01*
X164180951Y-98495180D02*
X163942856Y-98495180D01*
X163942856Y-98495180D02*
X163799999Y-98447561D01*
X163799999Y-98447561D02*
X163704761Y-98352323D01*
X163704761Y-98352323D02*
X163657142Y-98257085D01*
X163657142Y-98257085D02*
X163609523Y-98066609D01*
X163609523Y-98066609D02*
X163609523Y-97923752D01*
X163609523Y-97923752D02*
X163657142Y-97733276D01*
X163657142Y-97733276D02*
X163704761Y-97638038D01*
X163704761Y-97638038D02*
X163799999Y-97542800D01*
X163799999Y-97542800D02*
X163942856Y-97495180D01*
X163942856Y-97495180D02*
X164180951Y-97495180D01*
X163038094Y-98066609D02*
X163133332Y-98114228D01*
X163133332Y-98114228D02*
X163180951Y-98161847D01*
X163180951Y-98161847D02*
X163228570Y-98257085D01*
X163228570Y-98257085D02*
X163228570Y-98304704D01*
X163228570Y-98304704D02*
X163180951Y-98399942D01*
X163180951Y-98399942D02*
X163133332Y-98447561D01*
X163133332Y-98447561D02*
X163038094Y-98495180D01*
X163038094Y-98495180D02*
X162847618Y-98495180D01*
X162847618Y-98495180D02*
X162752380Y-98447561D01*
X162752380Y-98447561D02*
X162704761Y-98399942D01*
X162704761Y-98399942D02*
X162657142Y-98304704D01*
X162657142Y-98304704D02*
X162657142Y-98257085D01*
X162657142Y-98257085D02*
X162704761Y-98161847D01*
X162704761Y-98161847D02*
X162752380Y-98114228D01*
X162752380Y-98114228D02*
X162847618Y-98066609D01*
X162847618Y-98066609D02*
X163038094Y-98066609D01*
X163038094Y-98066609D02*
X163133332Y-98018990D01*
X163133332Y-98018990D02*
X163180951Y-97971371D01*
X163180951Y-97971371D02*
X163228570Y-97876133D01*
X163228570Y-97876133D02*
X163228570Y-97685657D01*
X163228570Y-97685657D02*
X163180951Y-97590419D01*
X163180951Y-97590419D02*
X163133332Y-97542800D01*
X163133332Y-97542800D02*
X163038094Y-97495180D01*
X163038094Y-97495180D02*
X162847618Y-97495180D01*
X162847618Y-97495180D02*
X162752380Y-97542800D01*
X162752380Y-97542800D02*
X162704761Y-97590419D01*
X162704761Y-97590419D02*
X162657142Y-97685657D01*
X162657142Y-97685657D02*
X162657142Y-97876133D01*
X162657142Y-97876133D02*
X162704761Y-97971371D01*
X162704761Y-97971371D02*
X162752380Y-98018990D01*
X162752380Y-98018990D02*
X162847618Y-98066609D01*
D12*
X164395238Y-88992580D02*
X164871428Y-88992580D01*
X164871428Y-88992580D02*
X164871428Y-89992580D01*
X164061904Y-89516390D02*
X163728571Y-89516390D01*
X163585714Y-88992580D02*
X164061904Y-88992580D01*
X164061904Y-88992580D02*
X164061904Y-89992580D01*
X164061904Y-89992580D02*
X163585714Y-89992580D01*
X163157142Y-88992580D02*
X163157142Y-89992580D01*
X163157142Y-89992580D02*
X162919047Y-89992580D01*
X162919047Y-89992580D02*
X162776190Y-89944961D01*
X162776190Y-89944961D02*
X162680952Y-89849723D01*
X162680952Y-89849723D02*
X162633333Y-89754485D01*
X162633333Y-89754485D02*
X162585714Y-89564009D01*
X162585714Y-89564009D02*
X162585714Y-89421152D01*
X162585714Y-89421152D02*
X162633333Y-89230676D01*
X162633333Y-89230676D02*
X162680952Y-89135438D01*
X162680952Y-89135438D02*
X162776190Y-89040200D01*
X162776190Y-89040200D02*
X162919047Y-88992580D01*
X162919047Y-88992580D02*
X163157142Y-88992580D01*
X161633333Y-88992580D02*
X162204761Y-88992580D01*
X161919047Y-88992580D02*
X161919047Y-89992580D01*
X161919047Y-89992580D02*
X162014285Y-89849723D01*
X162014285Y-89849723D02*
X162109523Y-89754485D01*
X162109523Y-89754485D02*
X162204761Y-89706866D01*
X161014285Y-89992580D02*
X160919047Y-89992580D01*
X160919047Y-89992580D02*
X160823809Y-89944961D01*
X160823809Y-89944961D02*
X160776190Y-89897342D01*
X160776190Y-89897342D02*
X160728571Y-89802104D01*
X160728571Y-89802104D02*
X160680952Y-89611628D01*
X160680952Y-89611628D02*
X160680952Y-89373533D01*
X160680952Y-89373533D02*
X160728571Y-89183057D01*
X160728571Y-89183057D02*
X160776190Y-89087819D01*
X160776190Y-89087819D02*
X160823809Y-89040200D01*
X160823809Y-89040200D02*
X160919047Y-88992580D01*
X160919047Y-88992580D02*
X161014285Y-88992580D01*
X161014285Y-88992580D02*
X161109523Y-89040200D01*
X161109523Y-89040200D02*
X161157142Y-89087819D01*
X161157142Y-89087819D02*
X161204761Y-89183057D01*
X161204761Y-89183057D02*
X161252380Y-89373533D01*
X161252380Y-89373533D02*
X161252380Y-89611628D01*
X161252380Y-89611628D02*
X161204761Y-89802104D01*
X161204761Y-89802104D02*
X161157142Y-89897342D01*
X161157142Y-89897342D02*
X161109523Y-89944961D01*
X161109523Y-89944961D02*
X161014285Y-89992580D01*
D10*
X165895238Y-81995180D02*
X166371428Y-81995180D01*
X166371428Y-81995180D02*
X166371428Y-82995180D01*
X165561904Y-82518990D02*
X165228571Y-82518990D01*
X165085714Y-81995180D02*
X165561904Y-81995180D01*
X165561904Y-81995180D02*
X165561904Y-82995180D01*
X165561904Y-82995180D02*
X165085714Y-82995180D01*
X164657142Y-81995180D02*
X164657142Y-82995180D01*
X164657142Y-82995180D02*
X164419047Y-82995180D01*
X164419047Y-82995180D02*
X164276190Y-82947561D01*
X164276190Y-82947561D02*
X164180952Y-82852323D01*
X164180952Y-82852323D02*
X164133333Y-82757085D01*
X164133333Y-82757085D02*
X164085714Y-82566609D01*
X164085714Y-82566609D02*
X164085714Y-82423752D01*
X164085714Y-82423752D02*
X164133333Y-82233276D01*
X164133333Y-82233276D02*
X164180952Y-82138038D01*
X164180952Y-82138038D02*
X164276190Y-82042800D01*
X164276190Y-82042800D02*
X164419047Y-81995180D01*
X164419047Y-81995180D02*
X164657142Y-81995180D01*
X163133333Y-81995180D02*
X163704761Y-81995180D01*
X163419047Y-81995180D02*
X163419047Y-82995180D01*
X163419047Y-82995180D02*
X163514285Y-82852323D01*
X163514285Y-82852323D02*
X163609523Y-82757085D01*
X163609523Y-82757085D02*
X163704761Y-82709466D01*
X162514285Y-82995180D02*
X162419047Y-82995180D01*
X162419047Y-82995180D02*
X162323809Y-82947561D01*
X162323809Y-82947561D02*
X162276190Y-82899942D01*
X162276190Y-82899942D02*
X162228571Y-82804704D01*
X162228571Y-82804704D02*
X162180952Y-82614228D01*
X162180952Y-82614228D02*
X162180952Y-82376133D01*
X162180952Y-82376133D02*
X162228571Y-82185657D01*
X162228571Y-82185657D02*
X162276190Y-82090419D01*
X162276190Y-82090419D02*
X162323809Y-82042800D01*
X162323809Y-82042800D02*
X162419047Y-81995180D01*
X162419047Y-81995180D02*
X162514285Y-81995180D01*
X162514285Y-81995180D02*
X162609523Y-82042800D01*
X162609523Y-82042800D02*
X162657142Y-82090419D01*
X162657142Y-82090419D02*
X162704761Y-82185657D01*
X162704761Y-82185657D02*
X162752380Y-82376133D01*
X162752380Y-82376133D02*
X162752380Y-82614228D01*
X162752380Y-82614228D02*
X162704761Y-82804704D01*
X162704761Y-82804704D02*
X162657142Y-82899942D01*
X162657142Y-82899942D02*
X162609523Y-82947561D01*
X162609523Y-82947561D02*
X162514285Y-82995180D01*
D11*
X167943832Y-102457142D02*
X167962880Y-102476190D01*
X167962880Y-102476190D02*
X167981927Y-102533332D01*
X167981927Y-102533332D02*
X167981927Y-102571428D01*
X167981927Y-102571428D02*
X167962880Y-102628571D01*
X167962880Y-102628571D02*
X167924784Y-102666666D01*
X167924784Y-102666666D02*
X167886689Y-102685713D01*
X167886689Y-102685713D02*
X167810499Y-102704761D01*
X167810499Y-102704761D02*
X167753356Y-102704761D01*
X167753356Y-102704761D02*
X167677165Y-102685713D01*
X167677165Y-102685713D02*
X167639070Y-102666666D01*
X167639070Y-102666666D02*
X167600975Y-102628571D01*
X167600975Y-102628571D02*
X167581927Y-102571428D01*
X167581927Y-102571428D02*
X167581927Y-102533332D01*
X167581927Y-102533332D02*
X167600975Y-102476190D01*
X167600975Y-102476190D02*
X167620022Y-102457142D01*
X167981927Y-102076190D02*
X167981927Y-102304761D01*
X167981927Y-102190475D02*
X167581927Y-102190475D01*
X167581927Y-102190475D02*
X167639070Y-102228571D01*
X167639070Y-102228571D02*
X167677165Y-102266666D01*
X167677165Y-102266666D02*
X167696213Y-102304761D01*
X167581927Y-101828571D02*
X167581927Y-101790476D01*
X167581927Y-101790476D02*
X167600975Y-101752380D01*
X167600975Y-101752380D02*
X167620022Y-101733333D01*
X167620022Y-101733333D02*
X167658118Y-101714285D01*
X167658118Y-101714285D02*
X167734308Y-101695238D01*
X167734308Y-101695238D02*
X167829546Y-101695238D01*
X167829546Y-101695238D02*
X167905737Y-101714285D01*
X167905737Y-101714285D02*
X167943832Y-101733333D01*
X167943832Y-101733333D02*
X167962880Y-101752380D01*
X167962880Y-101752380D02*
X167981927Y-101790476D01*
X167981927Y-101790476D02*
X167981927Y-101828571D01*
X167981927Y-101828571D02*
X167962880Y-101866666D01*
X167962880Y-101866666D02*
X167943832Y-101885714D01*
X167943832Y-101885714D02*
X167905737Y-101904761D01*
X167905737Y-101904761D02*
X167829546Y-101923809D01*
X167829546Y-101923809D02*
X167734308Y-101923809D01*
X167734308Y-101923809D02*
X167658118Y-101904761D01*
X167658118Y-101904761D02*
X167620022Y-101885714D01*
X167620022Y-101885714D02*
X167600975Y-101866666D01*
X167600975Y-101866666D02*
X167581927Y-101828571D01*
D10*
X165419047Y-112995180D02*
X165895237Y-112995180D01*
X165895237Y-112995180D02*
X165895237Y-113995180D01*
X165085713Y-113518990D02*
X164752380Y-113518990D01*
X164609523Y-112995180D02*
X165085713Y-112995180D01*
X165085713Y-112995180D02*
X165085713Y-113995180D01*
X165085713Y-113995180D02*
X164609523Y-113995180D01*
X164180951Y-112995180D02*
X164180951Y-113995180D01*
X164180951Y-113995180D02*
X163942856Y-113995180D01*
X163942856Y-113995180D02*
X163799999Y-113947561D01*
X163799999Y-113947561D02*
X163704761Y-113852323D01*
X163704761Y-113852323D02*
X163657142Y-113757085D01*
X163657142Y-113757085D02*
X163609523Y-113566609D01*
X163609523Y-113566609D02*
X163609523Y-113423752D01*
X163609523Y-113423752D02*
X163657142Y-113233276D01*
X163657142Y-113233276D02*
X163704761Y-113138038D01*
X163704761Y-113138038D02*
X163799999Y-113042800D01*
X163799999Y-113042800D02*
X163942856Y-112995180D01*
X163942856Y-112995180D02*
X164180951Y-112995180D01*
X162752380Y-113995180D02*
X162942856Y-113995180D01*
X162942856Y-113995180D02*
X163038094Y-113947561D01*
X163038094Y-113947561D02*
X163085713Y-113899942D01*
X163085713Y-113899942D02*
X163180951Y-113757085D01*
X163180951Y-113757085D02*
X163228570Y-113566609D01*
X163228570Y-113566609D02*
X163228570Y-113185657D01*
X163228570Y-113185657D02*
X163180951Y-113090419D01*
X163180951Y-113090419D02*
X163133332Y-113042800D01*
X163133332Y-113042800D02*
X163038094Y-112995180D01*
X163038094Y-112995180D02*
X162847618Y-112995180D01*
X162847618Y-112995180D02*
X162752380Y-113042800D01*
X162752380Y-113042800D02*
X162704761Y-113090419D01*
X162704761Y-113090419D02*
X162657142Y-113185657D01*
X162657142Y-113185657D02*
X162657142Y-113423752D01*
X162657142Y-113423752D02*
X162704761Y-113518990D01*
X162704761Y-113518990D02*
X162752380Y-113566609D01*
X162752380Y-113566609D02*
X162847618Y-113614228D01*
X162847618Y-113614228D02*
X163038094Y-113614228D01*
X163038094Y-113614228D02*
X163133332Y-113566609D01*
X163133332Y-113566609D02*
X163180951Y-113518990D01*
X163180951Y-113518990D02*
X163228570Y-113423752D01*
D11*
X167943832Y-110016666D02*
X167962880Y-110035714D01*
X167962880Y-110035714D02*
X167981927Y-110092856D01*
X167981927Y-110092856D02*
X167981927Y-110130952D01*
X167981927Y-110130952D02*
X167962880Y-110188095D01*
X167962880Y-110188095D02*
X167924784Y-110226190D01*
X167924784Y-110226190D02*
X167886689Y-110245237D01*
X167886689Y-110245237D02*
X167810499Y-110264285D01*
X167810499Y-110264285D02*
X167753356Y-110264285D01*
X167753356Y-110264285D02*
X167677165Y-110245237D01*
X167677165Y-110245237D02*
X167639070Y-110226190D01*
X167639070Y-110226190D02*
X167600975Y-110188095D01*
X167600975Y-110188095D02*
X167581927Y-110130952D01*
X167581927Y-110130952D02*
X167581927Y-110092856D01*
X167581927Y-110092856D02*
X167600975Y-110035714D01*
X167600975Y-110035714D02*
X167620022Y-110016666D01*
X167981927Y-109826190D02*
X167981927Y-109749999D01*
X167981927Y-109749999D02*
X167962880Y-109711904D01*
X167962880Y-109711904D02*
X167943832Y-109692856D01*
X167943832Y-109692856D02*
X167886689Y-109654761D01*
X167886689Y-109654761D02*
X167810499Y-109635714D01*
X167810499Y-109635714D02*
X167658118Y-109635714D01*
X167658118Y-109635714D02*
X167620022Y-109654761D01*
X167620022Y-109654761D02*
X167600975Y-109673809D01*
X167600975Y-109673809D02*
X167581927Y-109711904D01*
X167581927Y-109711904D02*
X167581927Y-109788095D01*
X167581927Y-109788095D02*
X167600975Y-109826190D01*
X167600975Y-109826190D02*
X167620022Y-109845237D01*
X167620022Y-109845237D02*
X167658118Y-109864285D01*
X167658118Y-109864285D02*
X167753356Y-109864285D01*
X167753356Y-109864285D02*
X167791451Y-109845237D01*
X167791451Y-109845237D02*
X167810499Y-109826190D01*
X167810499Y-109826190D02*
X167829546Y-109788095D01*
X167829546Y-109788095D02*
X167829546Y-109711904D01*
X167829546Y-109711904D02*
X167810499Y-109673809D01*
X167810499Y-109673809D02*
X167791451Y-109654761D01*
X167791451Y-109654761D02*
X167753356Y-109635714D01*
D10*
X165419047Y-105245180D02*
X165895237Y-105245180D01*
X165895237Y-105245180D02*
X165895237Y-106245180D01*
X165085713Y-105768990D02*
X164752380Y-105768990D01*
X164609523Y-105245180D02*
X165085713Y-105245180D01*
X165085713Y-105245180D02*
X165085713Y-106245180D01*
X165085713Y-106245180D02*
X164609523Y-106245180D01*
X164180951Y-105245180D02*
X164180951Y-106245180D01*
X164180951Y-106245180D02*
X163942856Y-106245180D01*
X163942856Y-106245180D02*
X163799999Y-106197561D01*
X163799999Y-106197561D02*
X163704761Y-106102323D01*
X163704761Y-106102323D02*
X163657142Y-106007085D01*
X163657142Y-106007085D02*
X163609523Y-105816609D01*
X163609523Y-105816609D02*
X163609523Y-105673752D01*
X163609523Y-105673752D02*
X163657142Y-105483276D01*
X163657142Y-105483276D02*
X163704761Y-105388038D01*
X163704761Y-105388038D02*
X163799999Y-105292800D01*
X163799999Y-105292800D02*
X163942856Y-105245180D01*
X163942856Y-105245180D02*
X164180951Y-105245180D01*
X163276189Y-106245180D02*
X162609523Y-106245180D01*
X162609523Y-106245180D02*
X163038094Y-105245180D01*
D11*
X167943832Y-86957142D02*
X167962880Y-86976190D01*
X167962880Y-86976190D02*
X167981927Y-87033332D01*
X167981927Y-87033332D02*
X167981927Y-87071428D01*
X167981927Y-87071428D02*
X167962880Y-87128571D01*
X167962880Y-87128571D02*
X167924784Y-87166666D01*
X167924784Y-87166666D02*
X167886689Y-87185713D01*
X167886689Y-87185713D02*
X167810499Y-87204761D01*
X167810499Y-87204761D02*
X167753356Y-87204761D01*
X167753356Y-87204761D02*
X167677165Y-87185713D01*
X167677165Y-87185713D02*
X167639070Y-87166666D01*
X167639070Y-87166666D02*
X167600975Y-87128571D01*
X167600975Y-87128571D02*
X167581927Y-87071428D01*
X167581927Y-87071428D02*
X167581927Y-87033332D01*
X167581927Y-87033332D02*
X167600975Y-86976190D01*
X167600975Y-86976190D02*
X167620022Y-86957142D01*
X167981927Y-86576190D02*
X167981927Y-86804761D01*
X167981927Y-86690475D02*
X167581927Y-86690475D01*
X167581927Y-86690475D02*
X167639070Y-86728571D01*
X167639070Y-86728571D02*
X167677165Y-86766666D01*
X167677165Y-86766666D02*
X167696213Y-86804761D01*
X167981927Y-86195238D02*
X167981927Y-86423809D01*
X167981927Y-86309523D02*
X167581927Y-86309523D01*
X167581927Y-86309523D02*
X167639070Y-86347619D01*
X167639070Y-86347619D02*
X167677165Y-86385714D01*
X167677165Y-86385714D02*
X167696213Y-86423809D01*
D10*
X165419047Y-89745180D02*
X165895237Y-89745180D01*
X165895237Y-89745180D02*
X165895237Y-90745180D01*
X165085713Y-90268990D02*
X164752380Y-90268990D01*
X164609523Y-89745180D02*
X165085713Y-89745180D01*
X165085713Y-89745180D02*
X165085713Y-90745180D01*
X165085713Y-90745180D02*
X164609523Y-90745180D01*
X164180951Y-89745180D02*
X164180951Y-90745180D01*
X164180951Y-90745180D02*
X163942856Y-90745180D01*
X163942856Y-90745180D02*
X163799999Y-90697561D01*
X163799999Y-90697561D02*
X163704761Y-90602323D01*
X163704761Y-90602323D02*
X163657142Y-90507085D01*
X163657142Y-90507085D02*
X163609523Y-90316609D01*
X163609523Y-90316609D02*
X163609523Y-90173752D01*
X163609523Y-90173752D02*
X163657142Y-89983276D01*
X163657142Y-89983276D02*
X163704761Y-89888038D01*
X163704761Y-89888038D02*
X163799999Y-89792800D01*
X163799999Y-89792800D02*
X163942856Y-89745180D01*
X163942856Y-89745180D02*
X164180951Y-89745180D01*
X163133332Y-89745180D02*
X162942856Y-89745180D01*
X162942856Y-89745180D02*
X162847618Y-89792800D01*
X162847618Y-89792800D02*
X162799999Y-89840419D01*
X162799999Y-89840419D02*
X162704761Y-89983276D01*
X162704761Y-89983276D02*
X162657142Y-90173752D01*
X162657142Y-90173752D02*
X162657142Y-90554704D01*
X162657142Y-90554704D02*
X162704761Y-90649942D01*
X162704761Y-90649942D02*
X162752380Y-90697561D01*
X162752380Y-90697561D02*
X162847618Y-90745180D01*
X162847618Y-90745180D02*
X163038094Y-90745180D01*
X163038094Y-90745180D02*
X163133332Y-90697561D01*
X163133332Y-90697561D02*
X163180951Y-90649942D01*
X163180951Y-90649942D02*
X163228570Y-90554704D01*
X163228570Y-90554704D02*
X163228570Y-90316609D01*
X163228570Y-90316609D02*
X163180951Y-90221371D01*
X163180951Y-90221371D02*
X163133332Y-90173752D01*
X163133332Y-90173752D02*
X163038094Y-90126133D01*
X163038094Y-90126133D02*
X162847618Y-90126133D01*
X162847618Y-90126133D02*
X162752380Y-90173752D01*
X162752380Y-90173752D02*
X162704761Y-90221371D01*
X162704761Y-90221371D02*
X162657142Y-90316609D01*
D11*
X167943832Y-117766666D02*
X167962880Y-117785714D01*
X167962880Y-117785714D02*
X167981927Y-117842856D01*
X167981927Y-117842856D02*
X167981927Y-117880952D01*
X167981927Y-117880952D02*
X167962880Y-117938095D01*
X167962880Y-117938095D02*
X167924784Y-117976190D01*
X167924784Y-117976190D02*
X167886689Y-117995237D01*
X167886689Y-117995237D02*
X167810499Y-118014285D01*
X167810499Y-118014285D02*
X167753356Y-118014285D01*
X167753356Y-118014285D02*
X167677165Y-117995237D01*
X167677165Y-117995237D02*
X167639070Y-117976190D01*
X167639070Y-117976190D02*
X167600975Y-117938095D01*
X167600975Y-117938095D02*
X167581927Y-117880952D01*
X167581927Y-117880952D02*
X167581927Y-117842856D01*
X167581927Y-117842856D02*
X167600975Y-117785714D01*
X167600975Y-117785714D02*
X167620022Y-117766666D01*
X167715260Y-117423809D02*
X167981927Y-117423809D01*
X167562880Y-117519047D02*
X167848594Y-117614285D01*
X167848594Y-117614285D02*
X167848594Y-117366666D01*
X120143832Y-87757142D02*
X120162880Y-87776190D01*
X120162880Y-87776190D02*
X120181927Y-87833332D01*
X120181927Y-87833332D02*
X120181927Y-87871428D01*
X120181927Y-87871428D02*
X120162880Y-87928571D01*
X120162880Y-87928571D02*
X120124784Y-87966666D01*
X120124784Y-87966666D02*
X120086689Y-87985713D01*
X120086689Y-87985713D02*
X120010499Y-88004761D01*
X120010499Y-88004761D02*
X119953356Y-88004761D01*
X119953356Y-88004761D02*
X119877165Y-87985713D01*
X119877165Y-87985713D02*
X119839070Y-87966666D01*
X119839070Y-87966666D02*
X119800975Y-87928571D01*
X119800975Y-87928571D02*
X119781927Y-87871428D01*
X119781927Y-87871428D02*
X119781927Y-87833332D01*
X119781927Y-87833332D02*
X119800975Y-87776190D01*
X119800975Y-87776190D02*
X119820022Y-87757142D01*
X120181927Y-87376190D02*
X120181927Y-87604761D01*
X120181927Y-87490475D02*
X119781927Y-87490475D01*
X119781927Y-87490475D02*
X119839070Y-87528571D01*
X119839070Y-87528571D02*
X119877165Y-87566666D01*
X119877165Y-87566666D02*
X119896213Y-87604761D01*
X119820022Y-87223809D02*
X119800975Y-87204761D01*
X119800975Y-87204761D02*
X119781927Y-87166666D01*
X119781927Y-87166666D02*
X119781927Y-87071428D01*
X119781927Y-87071428D02*
X119800975Y-87033333D01*
X119800975Y-87033333D02*
X119820022Y-87014285D01*
X119820022Y-87014285D02*
X119858118Y-86995238D01*
X119858118Y-86995238D02*
X119896213Y-86995238D01*
X119896213Y-86995238D02*
X119953356Y-87014285D01*
X119953356Y-87014285D02*
X120181927Y-87242857D01*
X120181927Y-87242857D02*
X120181927Y-86995238D01*
D13*
X135875000Y-78841244D02*
X135517857Y-78841244D01*
X135517857Y-78841244D02*
X135517857Y-78091244D01*
X136517857Y-78841244D02*
X136089286Y-78841244D01*
X136303571Y-78841244D02*
X136303571Y-78091244D01*
X136303571Y-78091244D02*
X136232143Y-78198387D01*
X136232143Y-78198387D02*
X136160714Y-78269815D01*
X136160714Y-78269815D02*
X136089286Y-78305530D01*
D11*
X129043832Y-99257142D02*
X129062880Y-99276190D01*
X129062880Y-99276190D02*
X129081927Y-99333332D01*
X129081927Y-99333332D02*
X129081927Y-99371428D01*
X129081927Y-99371428D02*
X129062880Y-99428571D01*
X129062880Y-99428571D02*
X129024784Y-99466666D01*
X129024784Y-99466666D02*
X128986689Y-99485713D01*
X128986689Y-99485713D02*
X128910499Y-99504761D01*
X128910499Y-99504761D02*
X128853356Y-99504761D01*
X128853356Y-99504761D02*
X128777165Y-99485713D01*
X128777165Y-99485713D02*
X128739070Y-99466666D01*
X128739070Y-99466666D02*
X128700975Y-99428571D01*
X128700975Y-99428571D02*
X128681927Y-99371428D01*
X128681927Y-99371428D02*
X128681927Y-99333332D01*
X128681927Y-99333332D02*
X128700975Y-99276190D01*
X128700975Y-99276190D02*
X128720022Y-99257142D01*
X129081927Y-98876190D02*
X129081927Y-99104761D01*
X129081927Y-98990475D02*
X128681927Y-98990475D01*
X128681927Y-98990475D02*
X128739070Y-99028571D01*
X128739070Y-99028571D02*
X128777165Y-99066666D01*
X128777165Y-99066666D02*
X128796213Y-99104761D01*
X128681927Y-98533333D02*
X128681927Y-98609523D01*
X128681927Y-98609523D02*
X128700975Y-98647619D01*
X128700975Y-98647619D02*
X128720022Y-98666666D01*
X128720022Y-98666666D02*
X128777165Y-98704761D01*
X128777165Y-98704761D02*
X128853356Y-98723809D01*
X128853356Y-98723809D02*
X129005737Y-98723809D01*
X129005737Y-98723809D02*
X129043832Y-98704761D01*
X129043832Y-98704761D02*
X129062880Y-98685714D01*
X129062880Y-98685714D02*
X129081927Y-98647619D01*
X129081927Y-98647619D02*
X129081927Y-98571428D01*
X129081927Y-98571428D02*
X129062880Y-98533333D01*
X129062880Y-98533333D02*
X129043832Y-98514285D01*
X129043832Y-98514285D02*
X129005737Y-98495238D01*
X129005737Y-98495238D02*
X128910499Y-98495238D01*
X128910499Y-98495238D02*
X128872403Y-98514285D01*
X128872403Y-98514285D02*
X128853356Y-98533333D01*
X128853356Y-98533333D02*
X128834308Y-98571428D01*
X128834308Y-98571428D02*
X128834308Y-98647619D01*
X128834308Y-98647619D02*
X128853356Y-98685714D01*
X128853356Y-98685714D02*
X128872403Y-98704761D01*
X128872403Y-98704761D02*
X128910499Y-98723809D01*
X132443832Y-82666666D02*
X132462880Y-82685714D01*
X132462880Y-82685714D02*
X132481927Y-82742856D01*
X132481927Y-82742856D02*
X132481927Y-82780952D01*
X132481927Y-82780952D02*
X132462880Y-82838095D01*
X132462880Y-82838095D02*
X132424784Y-82876190D01*
X132424784Y-82876190D02*
X132386689Y-82895237D01*
X132386689Y-82895237D02*
X132310499Y-82914285D01*
X132310499Y-82914285D02*
X132253356Y-82914285D01*
X132253356Y-82914285D02*
X132177165Y-82895237D01*
X132177165Y-82895237D02*
X132139070Y-82876190D01*
X132139070Y-82876190D02*
X132100975Y-82838095D01*
X132100975Y-82838095D02*
X132081927Y-82780952D01*
X132081927Y-82780952D02*
X132081927Y-82742856D01*
X132081927Y-82742856D02*
X132100975Y-82685714D01*
X132100975Y-82685714D02*
X132120022Y-82666666D01*
X132081927Y-82533333D02*
X132081927Y-82285714D01*
X132081927Y-82285714D02*
X132234308Y-82419047D01*
X132234308Y-82419047D02*
X132234308Y-82361904D01*
X132234308Y-82361904D02*
X132253356Y-82323809D01*
X132253356Y-82323809D02*
X132272403Y-82304761D01*
X132272403Y-82304761D02*
X132310499Y-82285714D01*
X132310499Y-82285714D02*
X132405737Y-82285714D01*
X132405737Y-82285714D02*
X132443832Y-82304761D01*
X132443832Y-82304761D02*
X132462880Y-82323809D01*
X132462880Y-82323809D02*
X132481927Y-82361904D01*
X132481927Y-82361904D02*
X132481927Y-82476190D01*
X132481927Y-82476190D02*
X132462880Y-82514285D01*
X132462880Y-82514285D02*
X132443832Y-82533333D01*
X139381927Y-83366666D02*
X139191451Y-83499999D01*
X139381927Y-83595237D02*
X138981927Y-83595237D01*
X138981927Y-83595237D02*
X138981927Y-83442856D01*
X138981927Y-83442856D02*
X139000975Y-83404761D01*
X139000975Y-83404761D02*
X139020022Y-83385714D01*
X139020022Y-83385714D02*
X139058118Y-83366666D01*
X139058118Y-83366666D02*
X139115260Y-83366666D01*
X139115260Y-83366666D02*
X139153356Y-83385714D01*
X139153356Y-83385714D02*
X139172403Y-83404761D01*
X139172403Y-83404761D02*
X139191451Y-83442856D01*
X139191451Y-83442856D02*
X139191451Y-83595237D01*
X139381927Y-82985714D02*
X139381927Y-83214285D01*
X139381927Y-83099999D02*
X138981927Y-83099999D01*
X138981927Y-83099999D02*
X139039070Y-83138095D01*
X139039070Y-83138095D02*
X139077165Y-83176190D01*
X139077165Y-83176190D02*
X139096213Y-83214285D01*
X128781927Y-82566666D02*
X128591451Y-82699999D01*
X128781927Y-82795237D02*
X128381927Y-82795237D01*
X128381927Y-82795237D02*
X128381927Y-82642856D01*
X128381927Y-82642856D02*
X128400975Y-82604761D01*
X128400975Y-82604761D02*
X128420022Y-82585714D01*
X128420022Y-82585714D02*
X128458118Y-82566666D01*
X128458118Y-82566666D02*
X128515260Y-82566666D01*
X128515260Y-82566666D02*
X128553356Y-82585714D01*
X128553356Y-82585714D02*
X128572403Y-82604761D01*
X128572403Y-82604761D02*
X128591451Y-82642856D01*
X128591451Y-82642856D02*
X128591451Y-82795237D01*
X128381927Y-82433333D02*
X128381927Y-82185714D01*
X128381927Y-82185714D02*
X128534308Y-82319047D01*
X128534308Y-82319047D02*
X128534308Y-82261904D01*
X128534308Y-82261904D02*
X128553356Y-82223809D01*
X128553356Y-82223809D02*
X128572403Y-82204761D01*
X128572403Y-82204761D02*
X128610499Y-82185714D01*
X128610499Y-82185714D02*
X128705737Y-82185714D01*
X128705737Y-82185714D02*
X128743832Y-82204761D01*
X128743832Y-82204761D02*
X128762880Y-82223809D01*
X128762880Y-82223809D02*
X128781927Y-82261904D01*
X128781927Y-82261904D02*
X128781927Y-82376190D01*
X128781927Y-82376190D02*
X128762880Y-82414285D01*
X128762880Y-82414285D02*
X128743832Y-82433333D01*
D10*
X121880952Y-99954819D02*
X121404762Y-99954819D01*
X121404762Y-99954819D02*
X121404762Y-98954819D01*
X122214286Y-99431009D02*
X122547619Y-99431009D01*
X122690476Y-99954819D02*
X122214286Y-99954819D01*
X122214286Y-99954819D02*
X122214286Y-98954819D01*
X122214286Y-98954819D02*
X122690476Y-98954819D01*
X123119048Y-99954819D02*
X123119048Y-98954819D01*
X123119048Y-98954819D02*
X123357143Y-98954819D01*
X123357143Y-98954819D02*
X123500000Y-99002438D01*
X123500000Y-99002438D02*
X123595238Y-99097676D01*
X123595238Y-99097676D02*
X123642857Y-99192914D01*
X123642857Y-99192914D02*
X123690476Y-99383390D01*
X123690476Y-99383390D02*
X123690476Y-99526247D01*
X123690476Y-99526247D02*
X123642857Y-99716723D01*
X123642857Y-99716723D02*
X123595238Y-99811961D01*
X123595238Y-99811961D02*
X123500000Y-99907200D01*
X123500000Y-99907200D02*
X123357143Y-99954819D01*
X123357143Y-99954819D02*
X123119048Y-99954819D01*
X124071429Y-99050057D02*
X124119048Y-99002438D01*
X124119048Y-99002438D02*
X124214286Y-98954819D01*
X124214286Y-98954819D02*
X124452381Y-98954819D01*
X124452381Y-98954819D02*
X124547619Y-99002438D01*
X124547619Y-99002438D02*
X124595238Y-99050057D01*
X124595238Y-99050057D02*
X124642857Y-99145295D01*
X124642857Y-99145295D02*
X124642857Y-99240533D01*
X124642857Y-99240533D02*
X124595238Y-99383390D01*
X124595238Y-99383390D02*
X124023810Y-99954819D01*
X124023810Y-99954819D02*
X124642857Y-99954819D01*
X149666666Y-103954819D02*
X149666666Y-104669104D01*
X149666666Y-104669104D02*
X149619047Y-104811961D01*
X149619047Y-104811961D02*
X149523809Y-104907200D01*
X149523809Y-104907200D02*
X149380952Y-104954819D01*
X149380952Y-104954819D02*
X149285714Y-104954819D01*
X150666666Y-104954819D02*
X150095238Y-104954819D01*
X150380952Y-104954819D02*
X150380952Y-103954819D01*
X150380952Y-103954819D02*
X150285714Y-104097676D01*
X150285714Y-104097676D02*
X150190476Y-104192914D01*
X150190476Y-104192914D02*
X150095238Y-104240533D01*
D11*
X130681927Y-82566666D02*
X130491451Y-82699999D01*
X130681927Y-82795237D02*
X130281927Y-82795237D01*
X130281927Y-82795237D02*
X130281927Y-82642856D01*
X130281927Y-82642856D02*
X130300975Y-82604761D01*
X130300975Y-82604761D02*
X130320022Y-82585714D01*
X130320022Y-82585714D02*
X130358118Y-82566666D01*
X130358118Y-82566666D02*
X130415260Y-82566666D01*
X130415260Y-82566666D02*
X130453356Y-82585714D01*
X130453356Y-82585714D02*
X130472403Y-82604761D01*
X130472403Y-82604761D02*
X130491451Y-82642856D01*
X130491451Y-82642856D02*
X130491451Y-82795237D01*
X130415260Y-82223809D02*
X130681927Y-82223809D01*
X130262880Y-82319047D02*
X130548594Y-82414285D01*
X130548594Y-82414285D02*
X130548594Y-82166666D01*
X131043832Y-102566666D02*
X131062880Y-102585714D01*
X131062880Y-102585714D02*
X131081927Y-102642856D01*
X131081927Y-102642856D02*
X131081927Y-102680952D01*
X131081927Y-102680952D02*
X131062880Y-102738095D01*
X131062880Y-102738095D02*
X131024784Y-102776190D01*
X131024784Y-102776190D02*
X130986689Y-102795237D01*
X130986689Y-102795237D02*
X130910499Y-102814285D01*
X130910499Y-102814285D02*
X130853356Y-102814285D01*
X130853356Y-102814285D02*
X130777165Y-102795237D01*
X130777165Y-102795237D02*
X130739070Y-102776190D01*
X130739070Y-102776190D02*
X130700975Y-102738095D01*
X130700975Y-102738095D02*
X130681927Y-102680952D01*
X130681927Y-102680952D02*
X130681927Y-102642856D01*
X130681927Y-102642856D02*
X130700975Y-102585714D01*
X130700975Y-102585714D02*
X130720022Y-102566666D01*
X130681927Y-102223809D02*
X130681927Y-102299999D01*
X130681927Y-102299999D02*
X130700975Y-102338095D01*
X130700975Y-102338095D02*
X130720022Y-102357142D01*
X130720022Y-102357142D02*
X130777165Y-102395237D01*
X130777165Y-102395237D02*
X130853356Y-102414285D01*
X130853356Y-102414285D02*
X131005737Y-102414285D01*
X131005737Y-102414285D02*
X131043832Y-102395237D01*
X131043832Y-102395237D02*
X131062880Y-102376190D01*
X131062880Y-102376190D02*
X131081927Y-102338095D01*
X131081927Y-102338095D02*
X131081927Y-102261904D01*
X131081927Y-102261904D02*
X131062880Y-102223809D01*
X131062880Y-102223809D02*
X131043832Y-102204761D01*
X131043832Y-102204761D02*
X131005737Y-102185714D01*
X131005737Y-102185714D02*
X130910499Y-102185714D01*
X130910499Y-102185714D02*
X130872403Y-102204761D01*
X130872403Y-102204761D02*
X130853356Y-102223809D01*
X130853356Y-102223809D02*
X130834308Y-102261904D01*
X130834308Y-102261904D02*
X130834308Y-102338095D01*
X130834308Y-102338095D02*
X130853356Y-102376190D01*
X130853356Y-102376190D02*
X130872403Y-102395237D01*
X130872403Y-102395237D02*
X130910499Y-102414285D01*
X120143832Y-103257142D02*
X120162880Y-103276190D01*
X120162880Y-103276190D02*
X120181927Y-103333332D01*
X120181927Y-103333332D02*
X120181927Y-103371428D01*
X120181927Y-103371428D02*
X120162880Y-103428571D01*
X120162880Y-103428571D02*
X120124784Y-103466666D01*
X120124784Y-103466666D02*
X120086689Y-103485713D01*
X120086689Y-103485713D02*
X120010499Y-103504761D01*
X120010499Y-103504761D02*
X119953356Y-103504761D01*
X119953356Y-103504761D02*
X119877165Y-103485713D01*
X119877165Y-103485713D02*
X119839070Y-103466666D01*
X119839070Y-103466666D02*
X119800975Y-103428571D01*
X119800975Y-103428571D02*
X119781927Y-103371428D01*
X119781927Y-103371428D02*
X119781927Y-103333332D01*
X119781927Y-103333332D02*
X119800975Y-103276190D01*
X119800975Y-103276190D02*
X119820022Y-103257142D01*
X120181927Y-102876190D02*
X120181927Y-103104761D01*
X120181927Y-102990475D02*
X119781927Y-102990475D01*
X119781927Y-102990475D02*
X119839070Y-103028571D01*
X119839070Y-103028571D02*
X119877165Y-103066666D01*
X119877165Y-103066666D02*
X119896213Y-103104761D01*
X119781927Y-102742857D02*
X119781927Y-102495238D01*
X119781927Y-102495238D02*
X119934308Y-102628571D01*
X119934308Y-102628571D02*
X119934308Y-102571428D01*
X119934308Y-102571428D02*
X119953356Y-102533333D01*
X119953356Y-102533333D02*
X119972403Y-102514285D01*
X119972403Y-102514285D02*
X120010499Y-102495238D01*
X120010499Y-102495238D02*
X120105737Y-102495238D01*
X120105737Y-102495238D02*
X120143832Y-102514285D01*
X120143832Y-102514285D02*
X120162880Y-102533333D01*
X120162880Y-102533333D02*
X120181927Y-102571428D01*
X120181927Y-102571428D02*
X120181927Y-102685714D01*
X120181927Y-102685714D02*
X120162880Y-102723809D01*
X120162880Y-102723809D02*
X120143832Y-102742857D01*
D10*
X121880952Y-107704819D02*
X121404762Y-107704819D01*
X121404762Y-107704819D02*
X121404762Y-106704819D01*
X122214286Y-107181009D02*
X122547619Y-107181009D01*
X122690476Y-107704819D02*
X122214286Y-107704819D01*
X122214286Y-107704819D02*
X122214286Y-106704819D01*
X122214286Y-106704819D02*
X122690476Y-106704819D01*
X123119048Y-107704819D02*
X123119048Y-106704819D01*
X123119048Y-106704819D02*
X123357143Y-106704819D01*
X123357143Y-106704819D02*
X123500000Y-106752438D01*
X123500000Y-106752438D02*
X123595238Y-106847676D01*
X123595238Y-106847676D02*
X123642857Y-106942914D01*
X123642857Y-106942914D02*
X123690476Y-107133390D01*
X123690476Y-107133390D02*
X123690476Y-107276247D01*
X123690476Y-107276247D02*
X123642857Y-107466723D01*
X123642857Y-107466723D02*
X123595238Y-107561961D01*
X123595238Y-107561961D02*
X123500000Y-107657200D01*
X123500000Y-107657200D02*
X123357143Y-107704819D01*
X123357143Y-107704819D02*
X123119048Y-107704819D01*
X124023810Y-106704819D02*
X124642857Y-106704819D01*
X124642857Y-106704819D02*
X124309524Y-107085771D01*
X124309524Y-107085771D02*
X124452381Y-107085771D01*
X124452381Y-107085771D02*
X124547619Y-107133390D01*
X124547619Y-107133390D02*
X124595238Y-107181009D01*
X124595238Y-107181009D02*
X124642857Y-107276247D01*
X124642857Y-107276247D02*
X124642857Y-107514342D01*
X124642857Y-107514342D02*
X124595238Y-107609580D01*
X124595238Y-107609580D02*
X124547619Y-107657200D01*
X124547619Y-107657200D02*
X124452381Y-107704819D01*
X124452381Y-107704819D02*
X124166667Y-107704819D01*
X124166667Y-107704819D02*
X124071429Y-107657200D01*
X124071429Y-107657200D02*
X124023810Y-107609580D01*
D11*
X130681927Y-88866666D02*
X130491451Y-88999999D01*
X130681927Y-89095237D02*
X130281927Y-89095237D01*
X130281927Y-89095237D02*
X130281927Y-88942856D01*
X130281927Y-88942856D02*
X130300975Y-88904761D01*
X130300975Y-88904761D02*
X130320022Y-88885714D01*
X130320022Y-88885714D02*
X130358118Y-88866666D01*
X130358118Y-88866666D02*
X130415260Y-88866666D01*
X130415260Y-88866666D02*
X130453356Y-88885714D01*
X130453356Y-88885714D02*
X130472403Y-88904761D01*
X130472403Y-88904761D02*
X130491451Y-88942856D01*
X130491451Y-88942856D02*
X130491451Y-89095237D01*
X130281927Y-88504761D02*
X130281927Y-88695237D01*
X130281927Y-88695237D02*
X130472403Y-88714285D01*
X130472403Y-88714285D02*
X130453356Y-88695237D01*
X130453356Y-88695237D02*
X130434308Y-88657142D01*
X130434308Y-88657142D02*
X130434308Y-88561904D01*
X130434308Y-88561904D02*
X130453356Y-88523809D01*
X130453356Y-88523809D02*
X130472403Y-88504761D01*
X130472403Y-88504761D02*
X130510499Y-88485714D01*
X130510499Y-88485714D02*
X130605737Y-88485714D01*
X130605737Y-88485714D02*
X130643832Y-88504761D01*
X130643832Y-88504761D02*
X130662880Y-88523809D01*
X130662880Y-88523809D02*
X130681927Y-88561904D01*
X130681927Y-88561904D02*
X130681927Y-88657142D01*
X130681927Y-88657142D02*
X130662880Y-88695237D01*
X130662880Y-88695237D02*
X130643832Y-88714285D01*
X120143832Y-110816666D02*
X120162880Y-110835714D01*
X120162880Y-110835714D02*
X120181927Y-110892856D01*
X120181927Y-110892856D02*
X120181927Y-110930952D01*
X120181927Y-110930952D02*
X120162880Y-110988095D01*
X120162880Y-110988095D02*
X120124784Y-111026190D01*
X120124784Y-111026190D02*
X120086689Y-111045237D01*
X120086689Y-111045237D02*
X120010499Y-111064285D01*
X120010499Y-111064285D02*
X119953356Y-111064285D01*
X119953356Y-111064285D02*
X119877165Y-111045237D01*
X119877165Y-111045237D02*
X119839070Y-111026190D01*
X119839070Y-111026190D02*
X119800975Y-110988095D01*
X119800975Y-110988095D02*
X119781927Y-110930952D01*
X119781927Y-110930952D02*
X119781927Y-110892856D01*
X119781927Y-110892856D02*
X119800975Y-110835714D01*
X119800975Y-110835714D02*
X119820022Y-110816666D01*
X119953356Y-110588095D02*
X119934308Y-110626190D01*
X119934308Y-110626190D02*
X119915260Y-110645237D01*
X119915260Y-110645237D02*
X119877165Y-110664285D01*
X119877165Y-110664285D02*
X119858118Y-110664285D01*
X119858118Y-110664285D02*
X119820022Y-110645237D01*
X119820022Y-110645237D02*
X119800975Y-110626190D01*
X119800975Y-110626190D02*
X119781927Y-110588095D01*
X119781927Y-110588095D02*
X119781927Y-110511904D01*
X119781927Y-110511904D02*
X119800975Y-110473809D01*
X119800975Y-110473809D02*
X119820022Y-110454761D01*
X119820022Y-110454761D02*
X119858118Y-110435714D01*
X119858118Y-110435714D02*
X119877165Y-110435714D01*
X119877165Y-110435714D02*
X119915260Y-110454761D01*
X119915260Y-110454761D02*
X119934308Y-110473809D01*
X119934308Y-110473809D02*
X119953356Y-110511904D01*
X119953356Y-110511904D02*
X119953356Y-110588095D01*
X119953356Y-110588095D02*
X119972403Y-110626190D01*
X119972403Y-110626190D02*
X119991451Y-110645237D01*
X119991451Y-110645237D02*
X120029546Y-110664285D01*
X120029546Y-110664285D02*
X120105737Y-110664285D01*
X120105737Y-110664285D02*
X120143832Y-110645237D01*
X120143832Y-110645237D02*
X120162880Y-110626190D01*
X120162880Y-110626190D02*
X120181927Y-110588095D01*
X120181927Y-110588095D02*
X120181927Y-110511904D01*
X120181927Y-110511904D02*
X120162880Y-110473809D01*
X120162880Y-110473809D02*
X120143832Y-110454761D01*
X120143832Y-110454761D02*
X120105737Y-110435714D01*
X120105737Y-110435714D02*
X120029546Y-110435714D01*
X120029546Y-110435714D02*
X119991451Y-110454761D01*
X119991451Y-110454761D02*
X119972403Y-110473809D01*
X119972403Y-110473809D02*
X119953356Y-110511904D01*
D10*
X172690476Y-85654819D02*
X172690476Y-84654819D01*
X172690476Y-84654819D02*
X173023809Y-85369104D01*
X173023809Y-85369104D02*
X173357142Y-84654819D01*
X173357142Y-84654819D02*
X173357142Y-85654819D01*
X173785714Y-84750057D02*
X173833333Y-84702438D01*
X173833333Y-84702438D02*
X173928571Y-84654819D01*
X173928571Y-84654819D02*
X174166666Y-84654819D01*
X174166666Y-84654819D02*
X174261904Y-84702438D01*
X174261904Y-84702438D02*
X174309523Y-84750057D01*
X174309523Y-84750057D02*
X174357142Y-84845295D01*
X174357142Y-84845295D02*
X174357142Y-84940533D01*
X174357142Y-84940533D02*
X174309523Y-85083390D01*
X174309523Y-85083390D02*
X173738095Y-85654819D01*
X173738095Y-85654819D02*
X174357142Y-85654819D01*
D11*
X120143832Y-118566666D02*
X120162880Y-118585714D01*
X120162880Y-118585714D02*
X120181927Y-118642856D01*
X120181927Y-118642856D02*
X120181927Y-118680952D01*
X120181927Y-118680952D02*
X120162880Y-118738095D01*
X120162880Y-118738095D02*
X120124784Y-118776190D01*
X120124784Y-118776190D02*
X120086689Y-118795237D01*
X120086689Y-118795237D02*
X120010499Y-118814285D01*
X120010499Y-118814285D02*
X119953356Y-118814285D01*
X119953356Y-118814285D02*
X119877165Y-118795237D01*
X119877165Y-118795237D02*
X119839070Y-118776190D01*
X119839070Y-118776190D02*
X119800975Y-118738095D01*
X119800975Y-118738095D02*
X119781927Y-118680952D01*
X119781927Y-118680952D02*
X119781927Y-118642856D01*
X119781927Y-118642856D02*
X119800975Y-118585714D01*
X119800975Y-118585714D02*
X119820022Y-118566666D01*
X119781927Y-118433333D02*
X119781927Y-118166666D01*
X119781927Y-118166666D02*
X120181927Y-118338095D01*
X135795238Y-82281927D02*
X135795238Y-82605737D01*
X135795238Y-82605737D02*
X135814285Y-82643832D01*
X135814285Y-82643832D02*
X135833333Y-82662880D01*
X135833333Y-82662880D02*
X135871428Y-82681927D01*
X135871428Y-82681927D02*
X135947619Y-82681927D01*
X135947619Y-82681927D02*
X135985714Y-82662880D01*
X135985714Y-82662880D02*
X136004761Y-82643832D01*
X136004761Y-82643832D02*
X136023809Y-82605737D01*
X136023809Y-82605737D02*
X136023809Y-82281927D01*
X136423809Y-82681927D02*
X136195238Y-82681927D01*
X136309524Y-82681927D02*
X136309524Y-82281927D01*
X136309524Y-82281927D02*
X136271428Y-82339070D01*
X136271428Y-82339070D02*
X136233333Y-82377165D01*
X136233333Y-82377165D02*
X136195238Y-82396213D01*
X139143832Y-77566666D02*
X139162880Y-77585714D01*
X139162880Y-77585714D02*
X139181927Y-77642856D01*
X139181927Y-77642856D02*
X139181927Y-77680952D01*
X139181927Y-77680952D02*
X139162880Y-77738095D01*
X139162880Y-77738095D02*
X139124784Y-77776190D01*
X139124784Y-77776190D02*
X139086689Y-77795237D01*
X139086689Y-77795237D02*
X139010499Y-77814285D01*
X139010499Y-77814285D02*
X138953356Y-77814285D01*
X138953356Y-77814285D02*
X138877165Y-77795237D01*
X138877165Y-77795237D02*
X138839070Y-77776190D01*
X138839070Y-77776190D02*
X138800975Y-77738095D01*
X138800975Y-77738095D02*
X138781927Y-77680952D01*
X138781927Y-77680952D02*
X138781927Y-77642856D01*
X138781927Y-77642856D02*
X138800975Y-77585714D01*
X138800975Y-77585714D02*
X138820022Y-77566666D01*
X139181927Y-77185714D02*
X139181927Y-77414285D01*
X139181927Y-77299999D02*
X138781927Y-77299999D01*
X138781927Y-77299999D02*
X138839070Y-77338095D01*
X138839070Y-77338095D02*
X138877165Y-77376190D01*
X138877165Y-77376190D02*
X138896213Y-77414285D01*
D10*
X121880952Y-123204819D02*
X121404762Y-123204819D01*
X121404762Y-123204819D02*
X121404762Y-122204819D01*
X122214286Y-122681009D02*
X122547619Y-122681009D01*
X122690476Y-123204819D02*
X122214286Y-123204819D01*
X122214286Y-123204819D02*
X122214286Y-122204819D01*
X122214286Y-122204819D02*
X122690476Y-122204819D01*
X123119048Y-123204819D02*
X123119048Y-122204819D01*
X123119048Y-122204819D02*
X123357143Y-122204819D01*
X123357143Y-122204819D02*
X123500000Y-122252438D01*
X123500000Y-122252438D02*
X123595238Y-122347676D01*
X123595238Y-122347676D02*
X123642857Y-122442914D01*
X123642857Y-122442914D02*
X123690476Y-122633390D01*
X123690476Y-122633390D02*
X123690476Y-122776247D01*
X123690476Y-122776247D02*
X123642857Y-122966723D01*
X123642857Y-122966723D02*
X123595238Y-123061961D01*
X123595238Y-123061961D02*
X123500000Y-123157200D01*
X123500000Y-123157200D02*
X123357143Y-123204819D01*
X123357143Y-123204819D02*
X123119048Y-123204819D01*
X124595238Y-122204819D02*
X124119048Y-122204819D01*
X124119048Y-122204819D02*
X124071429Y-122681009D01*
X124071429Y-122681009D02*
X124119048Y-122633390D01*
X124119048Y-122633390D02*
X124214286Y-122585771D01*
X124214286Y-122585771D02*
X124452381Y-122585771D01*
X124452381Y-122585771D02*
X124547619Y-122633390D01*
X124547619Y-122633390D02*
X124595238Y-122681009D01*
X124595238Y-122681009D02*
X124642857Y-122776247D01*
X124642857Y-122776247D02*
X124642857Y-123014342D01*
X124642857Y-123014342D02*
X124595238Y-123109580D01*
X124595238Y-123109580D02*
X124547619Y-123157200D01*
X124547619Y-123157200D02*
X124452381Y-123204819D01*
X124452381Y-123204819D02*
X124214286Y-123204819D01*
X124214286Y-123204819D02*
X124119048Y-123157200D01*
X124119048Y-123157200D02*
X124071429Y-123109580D01*
D14*
X141479530Y-83683333D02*
X141503340Y-83707142D01*
X141503340Y-83707142D02*
X141527149Y-83778571D01*
X141527149Y-83778571D02*
X141527149Y-83826190D01*
X141527149Y-83826190D02*
X141503340Y-83897618D01*
X141503340Y-83897618D02*
X141455720Y-83945237D01*
X141455720Y-83945237D02*
X141408101Y-83969047D01*
X141408101Y-83969047D02*
X141312863Y-83992856D01*
X141312863Y-83992856D02*
X141241435Y-83992856D01*
X141241435Y-83992856D02*
X141146197Y-83969047D01*
X141146197Y-83969047D02*
X141098578Y-83945237D01*
X141098578Y-83945237D02*
X141050959Y-83897618D01*
X141050959Y-83897618D02*
X141027149Y-83826190D01*
X141027149Y-83826190D02*
X141027149Y-83778571D01*
X141027149Y-83778571D02*
X141050959Y-83707142D01*
X141050959Y-83707142D02*
X141074768Y-83683333D01*
X141074768Y-83492856D02*
X141050959Y-83469047D01*
X141050959Y-83469047D02*
X141027149Y-83421428D01*
X141027149Y-83421428D02*
X141027149Y-83302380D01*
X141027149Y-83302380D02*
X141050959Y-83254761D01*
X141050959Y-83254761D02*
X141074768Y-83230952D01*
X141074768Y-83230952D02*
X141122387Y-83207142D01*
X141122387Y-83207142D02*
X141170006Y-83207142D01*
X141170006Y-83207142D02*
X141241435Y-83230952D01*
X141241435Y-83230952D02*
X141527149Y-83516666D01*
X141527149Y-83516666D02*
X141527149Y-83207142D01*
D10*
X172690476Y-122254819D02*
X172690476Y-121254819D01*
X172690476Y-121254819D02*
X173023809Y-121969104D01*
X173023809Y-121969104D02*
X173357142Y-121254819D01*
X173357142Y-121254819D02*
X173357142Y-122254819D01*
X174357142Y-122254819D02*
X173785714Y-122254819D01*
X174071428Y-122254819D02*
X174071428Y-121254819D01*
X174071428Y-121254819D02*
X173976190Y-121397676D01*
X173976190Y-121397676D02*
X173880952Y-121492914D01*
X173880952Y-121492914D02*
X173785714Y-121540533D01*
X134738095Y-98454819D02*
X134738095Y-99264342D01*
X134738095Y-99264342D02*
X134785714Y-99359580D01*
X134785714Y-99359580D02*
X134833333Y-99407200D01*
X134833333Y-99407200D02*
X134928571Y-99454819D01*
X134928571Y-99454819D02*
X135119047Y-99454819D01*
X135119047Y-99454819D02*
X135214285Y-99407200D01*
X135214285Y-99407200D02*
X135261904Y-99359580D01*
X135261904Y-99359580D02*
X135309523Y-99264342D01*
X135309523Y-99264342D02*
X135309523Y-98454819D01*
X136214285Y-98788152D02*
X136214285Y-99454819D01*
X135976190Y-98407200D02*
X135738095Y-99121485D01*
X135738095Y-99121485D02*
X136357142Y-99121485D01*
X121880952Y-115454819D02*
X121404762Y-115454819D01*
X121404762Y-115454819D02*
X121404762Y-114454819D01*
X122214286Y-114931009D02*
X122547619Y-114931009D01*
X122690476Y-115454819D02*
X122214286Y-115454819D01*
X122214286Y-115454819D02*
X122214286Y-114454819D01*
X122214286Y-114454819D02*
X122690476Y-114454819D01*
X123119048Y-115454819D02*
X123119048Y-114454819D01*
X123119048Y-114454819D02*
X123357143Y-114454819D01*
X123357143Y-114454819D02*
X123500000Y-114502438D01*
X123500000Y-114502438D02*
X123595238Y-114597676D01*
X123595238Y-114597676D02*
X123642857Y-114692914D01*
X123642857Y-114692914D02*
X123690476Y-114883390D01*
X123690476Y-114883390D02*
X123690476Y-115026247D01*
X123690476Y-115026247D02*
X123642857Y-115216723D01*
X123642857Y-115216723D02*
X123595238Y-115311961D01*
X123595238Y-115311961D02*
X123500000Y-115407200D01*
X123500000Y-115407200D02*
X123357143Y-115454819D01*
X123357143Y-115454819D02*
X123119048Y-115454819D01*
X124547619Y-114788152D02*
X124547619Y-115454819D01*
X124309524Y-114407200D02*
X124071429Y-115121485D01*
X124071429Y-115121485D02*
X124690476Y-115121485D01*
D11*
X129381927Y-104766666D02*
X129191451Y-104899999D01*
X129381927Y-104995237D02*
X128981927Y-104995237D01*
X128981927Y-104995237D02*
X128981927Y-104842856D01*
X128981927Y-104842856D02*
X129000975Y-104804761D01*
X129000975Y-104804761D02*
X129020022Y-104785714D01*
X129020022Y-104785714D02*
X129058118Y-104766666D01*
X129058118Y-104766666D02*
X129115260Y-104766666D01*
X129115260Y-104766666D02*
X129153356Y-104785714D01*
X129153356Y-104785714D02*
X129172403Y-104804761D01*
X129172403Y-104804761D02*
X129191451Y-104842856D01*
X129191451Y-104842856D02*
X129191451Y-104995237D01*
X128981927Y-104633333D02*
X128981927Y-104366666D01*
X128981927Y-104366666D02*
X129381927Y-104538095D01*
D10*
X130688095Y-64534819D02*
X130688095Y-65344342D01*
X130688095Y-65344342D02*
X130735714Y-65439580D01*
X130735714Y-65439580D02*
X130783333Y-65487200D01*
X130783333Y-65487200D02*
X130878571Y-65534819D01*
X130878571Y-65534819D02*
X131069047Y-65534819D01*
X131069047Y-65534819D02*
X131164285Y-65487200D01*
X131164285Y-65487200D02*
X131211904Y-65439580D01*
X131211904Y-65439580D02*
X131259523Y-65344342D01*
X131259523Y-65344342D02*
X131259523Y-64534819D01*
X131688095Y-64630057D02*
X131735714Y-64582438D01*
X131735714Y-64582438D02*
X131830952Y-64534819D01*
X131830952Y-64534819D02*
X132069047Y-64534819D01*
X132069047Y-64534819D02*
X132164285Y-64582438D01*
X132164285Y-64582438D02*
X132211904Y-64630057D01*
X132211904Y-64630057D02*
X132259523Y-64725295D01*
X132259523Y-64725295D02*
X132259523Y-64820533D01*
X132259523Y-64820533D02*
X132211904Y-64963390D01*
X132211904Y-64963390D02*
X131640476Y-65534819D01*
X131640476Y-65534819D02*
X132259523Y-65534819D01*
D11*
X120143832Y-95507142D02*
X120162880Y-95526190D01*
X120162880Y-95526190D02*
X120181927Y-95583332D01*
X120181927Y-95583332D02*
X120181927Y-95621428D01*
X120181927Y-95621428D02*
X120162880Y-95678571D01*
X120162880Y-95678571D02*
X120124784Y-95716666D01*
X120124784Y-95716666D02*
X120086689Y-95735713D01*
X120086689Y-95735713D02*
X120010499Y-95754761D01*
X120010499Y-95754761D02*
X119953356Y-95754761D01*
X119953356Y-95754761D02*
X119877165Y-95735713D01*
X119877165Y-95735713D02*
X119839070Y-95716666D01*
X119839070Y-95716666D02*
X119800975Y-95678571D01*
X119800975Y-95678571D02*
X119781927Y-95621428D01*
X119781927Y-95621428D02*
X119781927Y-95583332D01*
X119781927Y-95583332D02*
X119800975Y-95526190D01*
X119800975Y-95526190D02*
X119820022Y-95507142D01*
X120181927Y-95126190D02*
X120181927Y-95354761D01*
X120181927Y-95240475D02*
X119781927Y-95240475D01*
X119781927Y-95240475D02*
X119839070Y-95278571D01*
X119839070Y-95278571D02*
X119877165Y-95316666D01*
X119877165Y-95316666D02*
X119896213Y-95354761D01*
X119915260Y-94783333D02*
X120181927Y-94783333D01*
X119762880Y-94878571D02*
X120048594Y-94973809D01*
X120048594Y-94973809D02*
X120048594Y-94726190D01*
X130681927Y-85466666D02*
X130491451Y-85599999D01*
X130681927Y-85695237D02*
X130281927Y-85695237D01*
X130281927Y-85695237D02*
X130281927Y-85542856D01*
X130281927Y-85542856D02*
X130300975Y-85504761D01*
X130300975Y-85504761D02*
X130320022Y-85485714D01*
X130320022Y-85485714D02*
X130358118Y-85466666D01*
X130358118Y-85466666D02*
X130415260Y-85466666D01*
X130415260Y-85466666D02*
X130453356Y-85485714D01*
X130453356Y-85485714D02*
X130472403Y-85504761D01*
X130472403Y-85504761D02*
X130491451Y-85542856D01*
X130491451Y-85542856D02*
X130491451Y-85695237D01*
X130281927Y-85123809D02*
X130281927Y-85199999D01*
X130281927Y-85199999D02*
X130300975Y-85238095D01*
X130300975Y-85238095D02*
X130320022Y-85257142D01*
X130320022Y-85257142D02*
X130377165Y-85295237D01*
X130377165Y-85295237D02*
X130453356Y-85314285D01*
X130453356Y-85314285D02*
X130605737Y-85314285D01*
X130605737Y-85314285D02*
X130643832Y-85295237D01*
X130643832Y-85295237D02*
X130662880Y-85276190D01*
X130662880Y-85276190D02*
X130681927Y-85238095D01*
X130681927Y-85238095D02*
X130681927Y-85161904D01*
X130681927Y-85161904D02*
X130662880Y-85123809D01*
X130662880Y-85123809D02*
X130643832Y-85104761D01*
X130643832Y-85104761D02*
X130605737Y-85085714D01*
X130605737Y-85085714D02*
X130510499Y-85085714D01*
X130510499Y-85085714D02*
X130472403Y-85104761D01*
X130472403Y-85104761D02*
X130453356Y-85123809D01*
X130453356Y-85123809D02*
X130434308Y-85161904D01*
X130434308Y-85161904D02*
X130434308Y-85238095D01*
X130434308Y-85238095D02*
X130453356Y-85276190D01*
X130453356Y-85276190D02*
X130472403Y-85295237D01*
X130472403Y-85295237D02*
X130510499Y-85314285D01*
D10*
X121880952Y-92204819D02*
X121404762Y-92204819D01*
X121404762Y-92204819D02*
X121404762Y-91204819D01*
X122214286Y-91681009D02*
X122547619Y-91681009D01*
X122690476Y-92204819D02*
X122214286Y-92204819D01*
X122214286Y-92204819D02*
X122214286Y-91204819D01*
X122214286Y-91204819D02*
X122690476Y-91204819D01*
X123119048Y-92204819D02*
X123119048Y-91204819D01*
X123119048Y-91204819D02*
X123357143Y-91204819D01*
X123357143Y-91204819D02*
X123500000Y-91252438D01*
X123500000Y-91252438D02*
X123595238Y-91347676D01*
X123595238Y-91347676D02*
X123642857Y-91442914D01*
X123642857Y-91442914D02*
X123690476Y-91633390D01*
X123690476Y-91633390D02*
X123690476Y-91776247D01*
X123690476Y-91776247D02*
X123642857Y-91966723D01*
X123642857Y-91966723D02*
X123595238Y-92061961D01*
X123595238Y-92061961D02*
X123500000Y-92157200D01*
X123500000Y-92157200D02*
X123357143Y-92204819D01*
X123357143Y-92204819D02*
X123119048Y-92204819D01*
X124642857Y-92204819D02*
X124071429Y-92204819D01*
X124357143Y-92204819D02*
X124357143Y-91204819D01*
X124357143Y-91204819D02*
X124261905Y-91347676D01*
X124261905Y-91347676D02*
X124166667Y-91442914D01*
X124166667Y-91442914D02*
X124071429Y-91490533D01*
D11*
X138333333Y-85881927D02*
X138200000Y-85691451D01*
X138104762Y-85881927D02*
X138104762Y-85481927D01*
X138104762Y-85481927D02*
X138257143Y-85481927D01*
X138257143Y-85481927D02*
X138295238Y-85500975D01*
X138295238Y-85500975D02*
X138314285Y-85520022D01*
X138314285Y-85520022D02*
X138333333Y-85558118D01*
X138333333Y-85558118D02*
X138333333Y-85615260D01*
X138333333Y-85615260D02*
X138314285Y-85653356D01*
X138314285Y-85653356D02*
X138295238Y-85672403D01*
X138295238Y-85672403D02*
X138257143Y-85691451D01*
X138257143Y-85691451D02*
X138104762Y-85691451D01*
X138485714Y-85520022D02*
X138504762Y-85500975D01*
X138504762Y-85500975D02*
X138542857Y-85481927D01*
X138542857Y-85481927D02*
X138638095Y-85481927D01*
X138638095Y-85481927D02*
X138676190Y-85500975D01*
X138676190Y-85500975D02*
X138695238Y-85520022D01*
X138695238Y-85520022D02*
X138714285Y-85558118D01*
X138714285Y-85558118D02*
X138714285Y-85596213D01*
X138714285Y-85596213D02*
X138695238Y-85653356D01*
X138695238Y-85653356D02*
X138466666Y-85881927D01*
X138466666Y-85881927D02*
X138714285Y-85881927D01*
D10*
X138904819Y-108361904D02*
X138904819Y-107790476D01*
X139904819Y-108076190D02*
X138904819Y-108076190D01*
X139904819Y-107457142D02*
X138904819Y-107457142D01*
X138904819Y-107457142D02*
X138904819Y-107076190D01*
X138904819Y-107076190D02*
X138952438Y-106980952D01*
X138952438Y-106980952D02*
X139000057Y-106933333D01*
X139000057Y-106933333D02*
X139095295Y-106885714D01*
X139095295Y-106885714D02*
X139238152Y-106885714D01*
X139238152Y-106885714D02*
X139333390Y-106933333D01*
X139333390Y-106933333D02*
X139381009Y-106980952D01*
X139381009Y-106980952D02*
X139428628Y-107076190D01*
X139428628Y-107076190D02*
X139428628Y-107457142D01*
X139904819Y-105933333D02*
X139904819Y-106504761D01*
X139904819Y-106219047D02*
X138904819Y-106219047D01*
X138904819Y-106219047D02*
X139047676Y-106314285D01*
X139047676Y-106314285D02*
X139142914Y-106409523D01*
X139142914Y-106409523D02*
X139190533Y-106504761D01*
X121554819Y-132961904D02*
X121554819Y-132390476D01*
X122554819Y-132676190D02*
X121554819Y-132676190D01*
X122554819Y-132057142D02*
X121554819Y-132057142D01*
X121554819Y-132057142D02*
X121554819Y-131676190D01*
X121554819Y-131676190D02*
X121602438Y-131580952D01*
X121602438Y-131580952D02*
X121650057Y-131533333D01*
X121650057Y-131533333D02*
X121745295Y-131485714D01*
X121745295Y-131485714D02*
X121888152Y-131485714D01*
X121888152Y-131485714D02*
X121983390Y-131533333D01*
X121983390Y-131533333D02*
X122031009Y-131580952D01*
X122031009Y-131580952D02*
X122078628Y-131676190D01*
X122078628Y-131676190D02*
X122078628Y-132057142D01*
X121888152Y-130628571D02*
X122554819Y-130628571D01*
X121507200Y-130866666D02*
X122221485Y-131104761D01*
X122221485Y-131104761D02*
X122221485Y-130485714D01*
X121454819Y-128461904D02*
X121454819Y-127890476D01*
X122454819Y-128176190D02*
X121454819Y-128176190D01*
X122454819Y-127557142D02*
X121454819Y-127557142D01*
X121454819Y-127557142D02*
X121454819Y-127176190D01*
X121454819Y-127176190D02*
X121502438Y-127080952D01*
X121502438Y-127080952D02*
X121550057Y-127033333D01*
X121550057Y-127033333D02*
X121645295Y-126985714D01*
X121645295Y-126985714D02*
X121788152Y-126985714D01*
X121788152Y-126985714D02*
X121883390Y-127033333D01*
X121883390Y-127033333D02*
X121931009Y-127080952D01*
X121931009Y-127080952D02*
X121978628Y-127176190D01*
X121978628Y-127176190D02*
X121978628Y-127557142D01*
X121454819Y-126652380D02*
X121454819Y-126033333D01*
X121454819Y-126033333D02*
X121835771Y-126366666D01*
X121835771Y-126366666D02*
X121835771Y-126223809D01*
X121835771Y-126223809D02*
X121883390Y-126128571D01*
X121883390Y-126128571D02*
X121931009Y-126080952D01*
X121931009Y-126080952D02*
X122026247Y-126033333D01*
X122026247Y-126033333D02*
X122264342Y-126033333D01*
X122264342Y-126033333D02*
X122359580Y-126080952D01*
X122359580Y-126080952D02*
X122407200Y-126128571D01*
X122407200Y-126128571D02*
X122454819Y-126223809D01*
X122454819Y-126223809D02*
X122454819Y-126509523D01*
X122454819Y-126509523D02*
X122407200Y-126604761D01*
X122407200Y-126604761D02*
X122359580Y-126652380D01*
X134854819Y-108361904D02*
X134854819Y-107790476D01*
X135854819Y-108076190D02*
X134854819Y-108076190D01*
X135854819Y-107457142D02*
X134854819Y-107457142D01*
X134854819Y-107457142D02*
X134854819Y-107076190D01*
X134854819Y-107076190D02*
X134902438Y-106980952D01*
X134902438Y-106980952D02*
X134950057Y-106933333D01*
X134950057Y-106933333D02*
X135045295Y-106885714D01*
X135045295Y-106885714D02*
X135188152Y-106885714D01*
X135188152Y-106885714D02*
X135283390Y-106933333D01*
X135283390Y-106933333D02*
X135331009Y-106980952D01*
X135331009Y-106980952D02*
X135378628Y-107076190D01*
X135378628Y-107076190D02*
X135378628Y-107457142D01*
X134950057Y-106504761D02*
X134902438Y-106457142D01*
X134902438Y-106457142D02*
X134854819Y-106361904D01*
X134854819Y-106361904D02*
X134854819Y-106123809D01*
X134854819Y-106123809D02*
X134902438Y-106028571D01*
X134902438Y-106028571D02*
X134950057Y-105980952D01*
X134950057Y-105980952D02*
X135045295Y-105933333D01*
X135045295Y-105933333D02*
X135140533Y-105933333D01*
X135140533Y-105933333D02*
X135283390Y-105980952D01*
X135283390Y-105980952D02*
X135854819Y-106552380D01*
X135854819Y-106552380D02*
X135854819Y-105933333D01*
D15*
%TO.C,SW1*%
X126950000Y-65570000D02*
X126950000Y-64780000D01*
X126350000Y-63770000D02*
X120650000Y-63770000D01*
X125100000Y-66620000D02*
X123400000Y-66620000D01*
X124900000Y-63770000D02*
X124900000Y-62480000D01*
X124900000Y-62480000D02*
X124700000Y-62270000D01*
X124700000Y-62270000D02*
X123800000Y-62270000D01*
X123600000Y-62480000D02*
X123800000Y-62270000D01*
X123600000Y-62480000D02*
X123600000Y-63770000D01*
X122100000Y-66620000D02*
X121900000Y-66620000D01*
X120050000Y-64780000D02*
X120050000Y-65570000D01*
%TO.C,TP5*%
X142800000Y-107200000D02*
G75*
G02*
X140400000Y-107200000I-1200000J0D01*
G01*
X140400000Y-107200000D02*
G75*
G02*
X142800000Y-107200000I1200000J0D01*
G01*
%TO.C,TP6*%
X138400000Y-113000000D02*
G75*
G02*
X136000000Y-113000000I-1200000J0D01*
G01*
X136000000Y-113000000D02*
G75*
G02*
X138400000Y-113000000I1200000J0D01*
G01*
D16*
%TO.C,LED8*%
X162700000Y-101250000D02*
G75*
G02*
X162500000Y-101250000I-100000J0D01*
G01*
X162500000Y-101250000D02*
G75*
G02*
X162700000Y-101250000I100000J0D01*
G01*
%TO.C,LED10*%
X162700000Y-85750000D02*
G75*
G02*
X162500000Y-85750000I-100000J0D01*
G01*
X162500000Y-85750000D02*
G75*
G02*
X162700000Y-85750000I100000J0D01*
G01*
%TO.C,LED6*%
X162700000Y-116750000D02*
G75*
G02*
X162500000Y-116750000I-100000J0D01*
G01*
X162500000Y-116750000D02*
G75*
G02*
X162700000Y-116750000I100000J0D01*
G01*
%TO.C,LED7*%
X162700000Y-109000000D02*
G75*
G02*
X162500000Y-109000000I-100000J0D01*
G01*
X162500000Y-109000000D02*
G75*
G02*
X162700000Y-109000000I100000J0D01*
G01*
%TO.C,LED9*%
X162700000Y-93500000D02*
G75*
G02*
X162500000Y-93500000I-100000J0D01*
G01*
X162500000Y-93500000D02*
G75*
G02*
X162700000Y-93500000I100000J0D01*
G01*
D15*
%TO.C,L1*%
X134390000Y-76890000D02*
X137610000Y-76890000D01*
X137610000Y-80110000D02*
X134390000Y-80110000D01*
D16*
%TO.C,LED2*%
X124800000Y-96200000D02*
G75*
G02*
X124600000Y-96200000I-100000J0D01*
G01*
X124600000Y-96200000D02*
G75*
G02*
X124800000Y-96200000I100000J0D01*
G01*
D17*
%TO.C,S1*%
X135050000Y-67000000D02*
X135280000Y-67000000D01*
X135050000Y-71000000D02*
X135050000Y-67000000D01*
X135280000Y-71000000D02*
X135050000Y-71000000D01*
X137950000Y-67000000D02*
X137720000Y-67000000D01*
X137950000Y-67000000D02*
X137950000Y-71000000D01*
X137950000Y-71000000D02*
X137720000Y-71000000D01*
D16*
%TO.C,LED3*%
X124800000Y-103950000D02*
G75*
G02*
X124600000Y-103950000I-100000J0D01*
G01*
X124600000Y-103950000D02*
G75*
G02*
X124800000Y-103950000I100000J0D01*
G01*
D15*
%TO.C,U1*%
X136100000Y-80940000D02*
X135300000Y-80940000D01*
X136100000Y-80940000D02*
X136900000Y-80940000D01*
X136100000Y-84060000D02*
X135300000Y-84060000D01*
X136100000Y-84060000D02*
X136900000Y-84060000D01*
X134800000Y-80990000D02*
X134560000Y-80660000D01*
X135040000Y-80660000D01*
X134800000Y-80990000D01*
G36*
X134800000Y-80990000D02*
G01*
X134560000Y-80660000D01*
X135040000Y-80660000D01*
X134800000Y-80990000D01*
G37*
D16*
%TO.C,LED5*%
X124800000Y-119450000D02*
G75*
G02*
X124600000Y-119450000I-100000J0D01*
G01*
X124600000Y-119450000D02*
G75*
G02*
X124800000Y-119450000I100000J0D01*
G01*
D10*
%TO.C,U4*%
X135500000Y-95620000D02*
X133300000Y-95620000D01*
X135500000Y-95620000D02*
X137700000Y-95620000D01*
X135500000Y-102380000D02*
X133300000Y-102380000D01*
X135500000Y-102380000D02*
X137700000Y-102380000D01*
D15*
X131640000Y-96075000D02*
X131310000Y-96315000D01*
X131310000Y-95835000D01*
X131640000Y-96075000D01*
G36*
X131640000Y-96075000D02*
G01*
X131310000Y-96315000D01*
X131310000Y-95835000D01*
X131640000Y-96075000D01*
G37*
D16*
%TO.C,LED4*%
X124800000Y-111700000D02*
G75*
G02*
X124600000Y-111700000I-100000J0D01*
G01*
X124600000Y-111700000D02*
G75*
G02*
X124800000Y-111700000I100000J0D01*
G01*
D15*
%TO.C,U2*%
X130917133Y-67820000D02*
G75*
G02*
X130917133Y-66180000I-417133J820000D01*
G01*
D16*
%TO.C,LED1*%
X124800000Y-88450000D02*
G75*
G02*
X124600000Y-88450000I-100000J0D01*
G01*
X124600000Y-88450000D02*
G75*
G02*
X124800000Y-88450000I100000J0D01*
G01*
D15*
%TO.C,TP1*%
X138650000Y-107100000D02*
G75*
G02*
X136250000Y-107100000I-1200000J0D01*
G01*
X136250000Y-107100000D02*
G75*
G02*
X138650000Y-107100000I1200000J0D01*
G01*
%TO.C,TP4*%
X121300000Y-131700000D02*
G75*
G02*
X118900000Y-131700000I-1200000J0D01*
G01*
X118900000Y-131700000D02*
G75*
G02*
X121300000Y-131700000I1200000J0D01*
G01*
%TO.C,TP3*%
X121200000Y-127200000D02*
G75*
G02*
X118800000Y-127200000I-1200000J0D01*
G01*
X118800000Y-127200000D02*
G75*
G02*
X121200000Y-127200000I1200000J0D01*
G01*
%TO.C,TP2*%
X134600000Y-107100000D02*
G75*
G02*
X132200000Y-107100000I-1200000J0D01*
G01*
X132200000Y-107100000D02*
G75*
G02*
X134600000Y-107100000I1200000J0D01*
G01*
%TD*%
M02*
