%TF.GenerationSoftware,KiCad,Pcbnew,9.0.3*%
%TF.CreationDate,2025-11-04T21:30:19+11:00*%
%TF.ProjectId,test_project,74657374-5f70-4726-9f6a-6563742e6b69,rev?*%
%TF.SameCoordinates,Original*%
%TF.FileFunction,Soldermask,Top*%
%TF.FilePolarity,Negative*%
%FSLAX46Y46*%
G04 Gerber Fmt 4.6, Leading zero omitted, Abs format (unit mm)*
G04 Created by KiCad (PCBNEW 9.0.3) date 2025-11-04 21:30:19*
%MOMM*%
%LPD*%
G01*
G04 APERTURE LIST*
G04 Aperture macros list*
%AMRoundRect*
0 Rectangle with rounded corners*
0 $1 Rounding radius*
0 $2 $3 $4 $5 $6 $7 $8 $9 X,Y pos of 4 corners*
0 Add a 4 corners polygon primitive as box body*
4,1,4,$2,$3,$4,$5,$6,$7,$8,$9,$2,$3,0*
0 Add four circle primitives for the rounded corners*
1,1,$1+$1,$2,$3*
1,1,$1+$1,$4,$5*
1,1,$1+$1,$6,$7*
1,1,$1+$1,$8,$9*
0 Add four rect primitives between the rounded corners*
20,1,$1+$1,$2,$3,$4,$5,0*
20,1,$1+$1,$4,$5,$6,$7,0*
20,1,$1+$1,$6,$7,$8,$9,0*
20,1,$1+$1,$8,$9,$2,$3,0*%
G04 Aperture macros list end*
%ADD10R,1.000000X0.800000*%
%ADD11C,0.900000*%
%ADD12R,0.700000X1.500000*%
%ADD13C,2.000000*%
%ADD14RoundRect,0.244000X0.269000X-0.244000X0.269000X0.244000X-0.269000X0.244000X-0.269000X-0.244000X0*%
%ADD15RoundRect,0.035000X0.315000X-0.315000X0.315000X0.315000X-0.315000X0.315000X-0.315000X-0.315000X0*%
%ADD16RoundRect,0.244000X-0.269000X0.244000X-0.269000X-0.244000X0.269000X-0.244000X0.269000X0.244000X0*%
%ADD17RoundRect,0.200000X0.200000X1.150000X-0.200000X1.150000X-0.200000X-1.150000X0.200000X-1.150000X0*%
%ADD18RoundRect,0.219000X-0.294000X0.219000X-0.294000X-0.219000X0.294000X-0.219000X0.294000X0.219000X0*%
%ADD19RoundRect,0.219000X0.294000X-0.219000X0.294000X0.219000X-0.294000X0.219000X-0.294000X-0.219000X0*%
%ADD20RoundRect,0.035000X-0.315000X0.315000X-0.315000X-0.315000X0.315000X-0.315000X0.315000X0.315000X0*%
%ADD21RoundRect,1.050000X-2.450000X-3.950000X2.450000X-3.950000X2.450000X3.950000X-2.450000X3.950000X0*%
%ADD22RoundRect,0.287778X0.714222X-0.489222X0.714222X0.489222X-0.714222X0.489222X-0.714222X-0.489222X0*%
%ADD23C,0.300000*%
%ADD24RoundRect,0.150000X-0.512500X-0.150000X0.512500X-0.150000X0.512500X0.150000X-0.512500X0.150000X0*%
%ADD25RoundRect,0.269000X-0.494000X0.269000X-0.494000X-0.269000X0.494000X-0.269000X0.494000X0.269000X0*%
%ADD26RoundRect,0.100000X-0.640000X-0.100000X0.640000X-0.100000X0.640000X0.100000X-0.640000X0.100000X0*%
%ADD27C,1.400000*%
%ADD28RoundRect,0.219000X0.219000X0.294000X-0.219000X0.294000X-0.219000X-0.294000X0.219000X-0.294000X0*%
G04 APERTURE END LIST*
D10*
%TO.C,SW1*%
X127150000Y-66280000D03*
X127150000Y-64070000D03*
D11*
X125000000Y-65170000D03*
X122000000Y-65170000D03*
D10*
X119850000Y-66280000D03*
X119850000Y-64070000D03*
D12*
X125750000Y-66930000D03*
X122750000Y-66930000D03*
X121250000Y-66930000D03*
%TD*%
D13*
%TO.C,TP5*%
X141600000Y-107200000D03*
%TD*%
%TO.C,TP6*%
X137200000Y-113000000D03*
%TD*%
D14*
%TO.C,C5*%
X130400000Y-100480000D03*
X130400000Y-98920000D03*
%TD*%
%TO.C,C15*%
X167800000Y-93670000D03*
X167800000Y-95230000D03*
%TD*%
D15*
%TO.C,LED8*%
X165215000Y-101900000D03*
X165215000Y-103000000D03*
X163385000Y-103000000D03*
X163385000Y-101900000D03*
%TD*%
%TO.C,LED10*%
X165215000Y-86400000D03*
X165215000Y-87500000D03*
X163385000Y-87500000D03*
X163385000Y-86400000D03*
%TD*%
D14*
%TO.C,C10*%
X167800000Y-101420000D03*
X167800000Y-102980000D03*
%TD*%
D15*
%TO.C,LED6*%
X165215000Y-117400000D03*
X165215000Y-118500000D03*
X163385000Y-118500000D03*
X163385000Y-117400000D03*
%TD*%
D14*
%TO.C,C9*%
X167800000Y-109170000D03*
X167800000Y-110730000D03*
%TD*%
D15*
%TO.C,LED7*%
X165215000Y-109650000D03*
X165215000Y-110750000D03*
X163385000Y-110750000D03*
X163385000Y-109650000D03*
%TD*%
D14*
%TO.C,C11*%
X167800000Y-85920000D03*
X167800000Y-87480000D03*
%TD*%
D15*
%TO.C,LED9*%
X165215000Y-94150000D03*
X165215000Y-95250000D03*
X163385000Y-95250000D03*
X163385000Y-94150000D03*
%TD*%
D14*
%TO.C,C4*%
X167800000Y-116920000D03*
X167800000Y-118480000D03*
%TD*%
D16*
%TO.C,C12*%
X120000000Y-86720000D03*
X120000000Y-88280000D03*
%TD*%
D17*
%TO.C,L1*%
X137150000Y-78500000D03*
X134850000Y-78500000D03*
%TD*%
D16*
%TO.C,C16*%
X128900000Y-98220000D03*
X128900000Y-99780000D03*
%TD*%
D14*
%TO.C,C3*%
X132300000Y-83380000D03*
X132300000Y-81820000D03*
%TD*%
D18*
%TO.C,R1*%
X139200000Y-82480000D03*
X139200000Y-84120000D03*
%TD*%
D19*
%TO.C,R3*%
X128600000Y-83320000D03*
X128600000Y-81680000D03*
%TD*%
D20*
%TO.C,LED2*%
X123915000Y-95550000D03*
X123915000Y-94450000D03*
X122085000Y-94450000D03*
X122085000Y-95550000D03*
%TD*%
D21*
%TO.C,J1*%
X150000000Y-73000000D03*
X150000000Y-131000000D03*
%TD*%
D18*
%TO.C,R4*%
X130500000Y-81680000D03*
X130500000Y-83320000D03*
%TD*%
D22*
%TO.C,S1*%
X136500000Y-71075000D03*
X136500000Y-66925000D03*
%TD*%
D14*
%TO.C,C6*%
X130900000Y-103280000D03*
X130900000Y-101720000D03*
%TD*%
D16*
%TO.C,C13*%
X120000000Y-102220000D03*
X120000000Y-103780000D03*
%TD*%
D20*
%TO.C,LED3*%
X123915000Y-103300000D03*
X123915000Y-102200000D03*
X122085000Y-102200000D03*
X122085000Y-103300000D03*
%TD*%
D18*
%TO.C,R5*%
X130500000Y-87980000D03*
X130500000Y-89620000D03*
%TD*%
D16*
%TO.C,C8*%
X120000000Y-109970000D03*
X120000000Y-111530000D03*
%TD*%
D23*
%TO.C,M2*%
X173500000Y-78200000D03*
X173500000Y-78800000D03*
X173500000Y-79400000D03*
X173500000Y-80000000D03*
X173500000Y-80600000D03*
X173500000Y-81200000D03*
X175100000Y-78200000D03*
X175100000Y-78800000D03*
X175100000Y-79400000D03*
X175100000Y-80000000D03*
X175100000Y-80600000D03*
X175100000Y-81200000D03*
%TD*%
D16*
%TO.C,C7*%
X120000000Y-117720000D03*
X120000000Y-119280000D03*
%TD*%
D24*
%TO.C,U1*%
X134962500Y-81550000D03*
X134962500Y-82500000D03*
X134962500Y-83450000D03*
X137237500Y-83450000D03*
X137237500Y-82500000D03*
X137237500Y-81550000D03*
%TD*%
D14*
%TO.C,C1*%
X139000000Y-78280000D03*
X139000000Y-76720000D03*
%TD*%
D20*
%TO.C,LED5*%
X123915000Y-118800000D03*
X123915000Y-117700000D03*
X122085000Y-117700000D03*
X122085000Y-118800000D03*
%TD*%
D25*
%TO.C,C2*%
X141300000Y-82650000D03*
X141300000Y-84550000D03*
%TD*%
D23*
%TO.C,M1*%
X173500000Y-114800000D03*
X173500000Y-115400000D03*
X173500000Y-116000000D03*
X173500000Y-116600000D03*
X173500000Y-117200000D03*
X173500000Y-117800000D03*
X175100000Y-114800000D03*
X175100000Y-115400000D03*
X175100000Y-116000000D03*
X175100000Y-116600000D03*
X175100000Y-117200000D03*
X175100000Y-117800000D03*
%TD*%
D26*
%TO.C,U4*%
X132640000Y-96080000D03*
X132640000Y-96730000D03*
X132640000Y-97380000D03*
X132640000Y-98030000D03*
X132640000Y-98670000D03*
X132640000Y-99330000D03*
X132640000Y-99970000D03*
X132640000Y-100620000D03*
X132640000Y-101270000D03*
X132640000Y-101920000D03*
X138360000Y-101920000D03*
X138360000Y-101270000D03*
X138360000Y-100620000D03*
X138360000Y-99970000D03*
X138360000Y-99330000D03*
X138360000Y-98670000D03*
X138360000Y-98030000D03*
X138360000Y-97380000D03*
X138360000Y-96730000D03*
X138360000Y-96080000D03*
%TD*%
D20*
%TO.C,LED4*%
X123915000Y-111050000D03*
X123915000Y-109950000D03*
X122085000Y-109950000D03*
X122085000Y-111050000D03*
%TD*%
D19*
%TO.C,R7*%
X129200000Y-105520000D03*
X129200000Y-103880000D03*
%TD*%
D27*
%TO.C,U2*%
X130500000Y-67000000D03*
X132400000Y-67000000D03*
%TD*%
D16*
%TO.C,C14*%
X120000000Y-94470000D03*
X120000000Y-96030000D03*
%TD*%
D19*
%TO.C,R6*%
X130500000Y-86220000D03*
X130500000Y-84580000D03*
%TD*%
D20*
%TO.C,LED1*%
X123915000Y-87800000D03*
X123915000Y-86700000D03*
X122085000Y-86700000D03*
X122085000Y-87800000D03*
%TD*%
D28*
%TO.C,R2*%
X139220000Y-85700000D03*
X137580000Y-85700000D03*
%TD*%
D13*
%TO.C,TP1*%
X137450000Y-107100000D03*
%TD*%
%TO.C,TP4*%
X120100000Y-131700000D03*
%TD*%
%TO.C,TP3*%
X120000000Y-127200000D03*
%TD*%
%TO.C,TP2*%
X133400000Y-107100000D03*
%TD*%
M02*
